<?xml version="1.0" encoding="UTF-8" standalone="no"?>
<!--
  - Copyright 2023-2024 the original author or authors.
  -
  - Licensed under the Apache License, Version 2.0 (the "License");
  - you may not use this file except in compliance with the License.
  - You may obtain a copy of the License at
  -
  -      https://www.apache.org/licenses/LICENSE-2.0
  -
  - Unless required by applicable law or agreed to in writing, software
  - distributed under the License is distributed on an "AS IS" BASIS,
  - WITHOUT WARRANTIES OR CONDITIONS OF ANY KIND, either express or implied.
  - See the License for the specific language governing permissions and
  - limitations under the License.
  -->

<!-- Created with Inkscape (http://www.inkscape.org/) -->

<svg
		version="1.1"
		id="svg1"
		width="1022"
		height="239.33333"
		viewBox="0 0 1022 239.33333"
		sodipodi:docname="spring_ai_logo copy.svg"
		inkscape:version="1.3.2 (091e20e, 2023-11-25)"
		xmlns:inkscape="http://www.inkscape.org/namespaces/inkscape"
		xmlns:sodipodi="http://sodipodi.sourceforge.net/DTD/sodipodi-0.dtd"
		xmlns="http://www.w3.org/2000/svg"
>
  <defs
     id="defs1" />
  <sodipodi:namedview
     id="namedview1"
     pagecolor="#ffffff"
     bordercolor="#000000"
     borderopacity="0.25"
     inkscape:showpageshadow="2"
     inkscape:pageopacity="0.0"
     inkscape:pagecheckerboard="0"
     inkscape:deskcolor="#d1d1d1"
     inkscape:zoom="0.622249"
     inkscape:cx="541.58383"
     inkscape:cy="184.00994"
     inkscape:window-width="1728"
     inkscape:window-height="928"
     inkscape:window-x="2286"
     inkscape:window-y="140"
     inkscape:window-maximized="0"
     inkscape:current-layer="g1" />
  <g
     inkscape:groupmode="layer"
     inkscape:label="Image"
     id="g1">
    <path
       style="fill:#7eb050;fill-opacity:1"
       d="m 109.7589,216.77969 c -16.023197,-4.30665 -24.951427,-19.58693 -20.463967,-35.02324 2.73812,-9.41881 7.703156,-12.1566 22.599927,-12.46193 l 11.16666,-0.22888 v -19.9438 -19.94381 h -5.04797 c -5.04797,0 -5.04797,0 -4.5909,3.65828 0.91627,7.33359 -1.38627,10.99969 -6.91241,11.00589 -4.18543,0.005 -6.11538,-2.89461 -6.11538,-9.18696 0,-5.29202 0,-5.29202 -3.881601,-5.644 -6.578756,-0.59654 -12.126656,-4.2474 -15.785066,-10.38754 -4.80285,-8.06094 -28.80677,-7.10874 -28.211621,1.11911 0.222148,3.07116 0.735794,4.51823 2.413581,6.79967 2.8052,3.81448 2.74158,5.95899 -0.2997,10.10204 -10.112274,13.77567 -0.50547,32.53351 16.662,32.53351 6.28849,0 6.67341,0.48154 7.08905,8.86874 0.27689,5.58722 0.59929,7.27442 1.60123,8.37976 2.47544,2.73091 -2.06672,6.45618 -6.11339,5.01394 -2.26131,-0.80594 -4.1553,-3.50642 -5.11776,-7.29697 -0.79844,-3.14456 -0.79844,-3.14456 -5.61718,-4.36829 -20.927731,-5.31466 -32.477286,-33.1888 -19.632585,-47.38203 0.852627,-0.94214 0.90818,-1.54589 0.302192,-3.28423 -0.933692,-2.67839 -0.966538,-17.43072 -0.04619,-20.7446 1.2489,-4.49687 5.04875,-5.55547 12.637043,-3.52056 6.14103,1.64681 13.07955,1.91863 18.66666,0.73126 9.09797,-1.93349 10.95446,-1.46803 13.75484,3.44858 4.71007,8.26943 6.07902,8.82107 21.890417,8.82107 h 12.35474 V 103.17803 88.511373 h -11.25947 c -15.337651,0 -14.216131,1.21514 -13.949211,-15.11366 0.23973,-14.66565 1.07285,-16.83515 7.228071,-18.82238 10.03764,-3.24067 15.83186,10.18651 6.48219,15.02141 -5.43242,2.80921 -2.36659,7.58129 4.87061,7.58129 h 6.70553 l -0.20553,-13.29788 c -0.20552,-13.29789 -0.20552,-13.29789 -2.49079,-15.65411 -5.88949,-6.07234 -15.60506,-4.72771 -23.353531,3.23212 -6.127806,6.29495 -14.977616,1.43801 -10.261656,-5.63179 11.253666,-16.87063 37.503797,-17.51081 45.545177,-1.11075 2.19876,4.48427 3.39,165.010717 1.24372,167.596827 -3.50912,4.22824 -16.02657,6.57206 -23.85773,4.46724 z m 13.30262,-23.60166 v -12.66667 h -8.91009 c -16.201071,0 -20.255047,11.35463 -7.67158,21.48702 10.8036,8.69922 16.58167,5.62567 16.58167,-8.82035 z m 26.32425,21.05672 -5.32425,-2.8948 v -81.24762 c 0,-91.956637 -0.52548,-83.878517 5.87502,-90.314657 12.43954,-12.50882 35.01745,-7.4097 45.33918,10.23967 2.17873,3.72545 2.89136,4.41426 5.31752,5.13976 12.98016,3.88148 22.46828,16.43464 22.46828,29.72642 0,3.38245 0.0353,3.44123 2.81789,4.69326 11.0374,4.96632 18.13686,21.703507 14.24854,33.591377 -1.1917,3.64341 -1.20519,3.59103 2.01445,7.82028 10.62917,13.96225 4.72688,36.68836 -11.81885,45.50714 -6.60965,3.5229 -10.55594,3.99131 -33.73516,4.00421 -20.80646,0.0116 -20.80646,0.0116 -23.28875,2.69445 -3.40104,3.67586 -8.51989,6.95308 -13.26615,8.49334 -3.97197,1.28898 -3.97197,1.28898 -4.15502,12.87277 -0.21831,13.81476 0.14013,13.28067 -6.4927,9.6744 z m 13.56751,-37.28393 c 1.22379,-1.15837 2.79363,-3.20905 3.48852,-4.55708 1.26345,-2.45095 1.26345,-2.45095 26.77492,-2.68713 24.53088,-0.2271 25.65444,-0.29326 29.23103,-1.72105 15.42377,-6.15723 18.26165,-27.55829 4.57411,-34.49429 -5.40706,-2.73997 -5.91716,-6.34216 -1.44841,-10.22831 7.73882,-6.72988 4.45698,-17.75235 -7.43669,-24.977087 -5.84386,-3.54982 -7.07524,-5.67991 -7.07524,-12.23909 0,-10.61317 -6.13071,-18.53038 -15.43882,-19.93773 -3.6122,-0.54615 -5.13724,-1.91694 -8.35033,-7.50572 -8.31635,-14.46529 -24.29383,-18.96669 -30.55707,-8.60896 -3.21572,5.31794 -2.16695,66.264517 1.14941,66.794827 5.32828,0.85203 10.80855,5.40003 13.6258,11.30788 1.35303,2.83733 1.18503,2.80495 5.2422,1.01027 13.49467,-5.96934 25.66215,4.53101 25.66215,22.14604 0,11.67443 2.53861,10.54434 -24.14683,10.7492 l -22.85317,0.17544 -0.18757,8.63141 c -0.24956,11.48407 1.02984,12.49844 7.74599,6.14138 z m 51.28329,-24.14972 c -6.82239,-3.70179 -3.9883,-14.28974 3.82495,-14.28974 2.67451,0 3.46525,0.33192 5.4,2.26667 6.29945,6.29945 -1.36454,16.28809 -9.22495,12.02307 z m -10.91719,-26.4793 c -4.86716,-4.46042 -3.26386,-11.32322 3.09008,-13.22691 5.04368,-1.51112 9.9854,2.38252 9.9854,7.86762 0,6.88952 -7.88096,10.11971 -13.07548,5.35929 z m -20.97756,-7.1583 c -17.24173,-2.87509 -23.21162,-26.637817 -9.6604,-38.452547 10.24316,-8.93058 30.3801,-7.98171 30.3801,1.43153 0,4.40933 -2.88718,6.3777 -6.89717,4.70222 -11.3381,-4.73736 -22.55505,4.9984 -17.80724,15.455787 3.40885,7.50823 10.9442,6.24968 10.22268,-1.70739 -0.43041,-4.746677 2.10481,-8.242067 6.58805,-9.083127 8.14954,-1.52886 13.28397,8.649397 7.2559,14.383767 -1.45078,1.3801 -3.28796,3.89245 -4.08261,5.58301 -1.75218,3.72758 -5.41504,6.89121 -8.59548,7.42394 -1.29294,0.21657 -2.80079,0.47885 -3.35079,0.58284 -0.55,0.10399 -2.37387,-0.04 -4.05304,-0.32003 z M 168.61675,69.715663 c -3.08437,-0.79924 -5.55523,-4.04104 -5.55523,-7.28855 0,-7.68617 8.03293,-11.12965 13.32828,-5.71345 5.82963,5.96269 0.36118,15.10979 -7.77305,13.002 z m 21.77811,78.095927 c 0,-7.86584 -5.32469,-10.39872 -13.24448,-6.30023 -8.5728,4.43643 -13.37491,2.79911 -15.72328,-5.361 -0.62875,-2.18478 -1.92435,-4.79733 -2.87911,-5.80566 -3.26212,-3.44518 -3.48647,-2.85534 -3.48647,9.16666 v 11 h 17.66667 c 17.66667,0 17.66667,0 17.66667,-2.69977 z m 186.74853,54.672 c -3.23199,-0.72519 -5.53025,-2.6231 -7.24853,-5.98585 -2.1488,-4.20528 -2.36665,-112.347047 -0.23578,-117.038767 5.46792,-12.03917 21.40244,-7.234 21.40244,6.45407 0,4.11116 0,4.11116 2.83334,0.62268 22.30073,-27.45726 66.25271,-13.33272 73.94508,23.763227 10.03941,48.41431 -39.66865,84.72003 -71.88522,52.50346 l -4.83524,-4.83524 -0.19564,18.82536 c -0.24473,23.54759 -2.72503,28.17166 -13.78045,25.69106 z m 53.40131,-51.12056 c 21.31402,-9.98007 21.3379,-46.81757 0.0369,-56.854167 -20.89558,-9.84556 -42.629,8.481377 -39.48301,33.294477 2.52609,19.92375 22.1632,31.65226 39.44616,23.55969 z m 282.18349,49.73236 c -19.15108,-1.81652 -34.33822,-9.33516 -34.33084,-16.99605 0.008,-8.46596 7.08689,-11.45186 16.45117,-6.93932 23.78174,11.46017 48.91724,6.49313 54.85515,-10.83996 3.03745,-8.86648 2.55262,-9.46132 -3.15164,-3.86673 -24.53021,24.05864 -64.54684,8.90466 -71.85256,-27.20999 -9.7204,-48.051217 39.33557,-83.528117 71.46165,-51.680517 l 5.43292,5.38583 0.24141,-4.78059 c 0.69749,-13.81224 19.74502,-16.24345 22.23148,-2.83761 1.30112,7.01499 -0.0631,83.517987 -1.57836,88.514247 -5.90225,19.46097 -18.90363,29.10503 -42.17605,31.285 -8.3727,0.78429 -8.96624,0.78313 -17.58433,-0.0343 z m 20.56328,-48.6026 c 25.41233,-9.50797 24.40719,-51.34778 -1.42523,-59.326597 -15.19072,-4.69193 -30.36557,4.02277 -34.47456,19.798237 -6.7488,25.9104 13.29891,47.98443 35.89979,39.52836 z m -419.21596,20.62703 c -15.81177,-2.16123 -31.00518,-11.2126 -31.01149,-18.4749 -0.008,-9.51257 6.35839,-11.499 17.88383,-5.57981 20.36682,10.45989 38.11367,8.85042 38.11367,-3.45656 0,-6.40454 -2.51449,-8.09447 -20.97668,-14.09794 -29.30075,-9.52792 -38.15912,-23.69999 -27.29297,-43.664677 9.44591,-17.35525 48.68297,-20.85371 64.14834,-5.71961 8.83965,8.65031 -1.32083,19.292777 -13.09926,13.72067 -17.62941,-8.34008 -33.77943,-6.22942 -33.77943,4.414677 0,5.34435 3.80186,7.86447 19.93342,13.21316 23.15844,7.67857 30.89407,14.52921 31.60033,27.98508 1.15941,22.08965 -18.00725,35.42045 -45.51976,31.65991 z m 168.9338,-0.79099 c -5.61373,-3.78309 -5.28112,-0.71917 -5.28112,-48.64864 0,-47.809197 -0.20998,-45.687407 4.85286,-49.037837 7.30619,-4.835 16.19764,-0.31122 17.09592,8.69804 0.38455,3.85688 0.38455,3.85688 2.71789,0.70235 8.75662,-11.83846 27.02931,-15.01936 31.83333,-5.54153 3.90935,7.71273 0.4049,14.20806 -8.97438,16.63363 -19.5847,5.064787 -24.79634,15.324367 -25.34957,49.902847 -0.32985,20.61643 -0.40492,21.61612 -1.77609,23.6508 -2.32931,3.45646 -5.42802,5.15621 -9.39996,5.15621 -2.50479,0 -4.09494,-0.42149 -5.71888,-1.51587 z m 67.05221,0.30798 c -3.04168,-1.94881 -4.7969,-4.18253 -5.59904,-7.12545 -1.15876,-4.25123 -0.94771,-81.904157 0.23158,-85.210787 3.38768,-9.49873 16.03597,-10.14331 20.73485,-1.05668 1.54899,2.9954 1.4302,85.087627 -0.12787,88.371017 -2.54535,5.36391 -10.57555,8.01012 -15.23952,5.0219 z m 33.01587,-0.24898 c -5.73589,-3.89789 -5.39967,-0.6955 -5.19649,-49.49576 0.18062,-43.380697 0.18062,-43.380697 1.78586,-45.631407 6.36051,-8.91808 20.05885,-3.90548 20.06263,7.34148 0.001,3.57589 0.001,3.57589 3.5,-0.24657 19.76467,-21.59305 55.00836,-12.6565 60.86525,15.43327 1.7463,8.375307 1.12183,66.638977 -0.74098,69.133107 -4.93241,6.60405 -14.4903,6.62203 -18.85163,0.0355 -1.77384,-2.67892 -1.77384,-2.67892 -2.10717,-31.74563 -0.44975,-39.217997 -3.53388,-45.269887 -22.34519,-43.847187 -17.25346,1.30487 -20.28663,8.555847 -20.30827,48.548137 -0.0131,24.19716 -0.0258,24.41986 -1.51321,26.60537 -3.55418,5.22218 -10.53634,7.0055 -15.1508,3.86969 z M 83.364563,160.20833 c -2.11322,-2.11321 -2.26847,-6.3982 -0.30303,-8.36363 1.81287,-1.81287 27.990107,-2.06637 30.518317,-0.29553 2.03155,1.42294 2.12364,6.9869 0.14834,8.96219 -2.28438,2.28438 -28.033197,2.0274 -30.363627,-0.30303 z m -19.79926,-7.4946 c -5.82763,-3.73721 -4.47953,-12.29101 2.25511,-14.30876 7.45832,-2.23457 13.02218,7.29969 7.48888,12.83299 -2.61847,2.61846 -6.94122,3.27317 -9.74399,1.47577 z m 1.08831,-21.52241 c -4.70212,-1.89987 -5.78123,-8.62415 -1.99208,-12.41329 6.37426,-6.37427 16.21502,1.04463 12.05538,9.08849 -1.72101,3.32806 -6.30604,4.8429 -10.0633,3.3248 z m 37.940277,-21.31963 c -7.250071,-4.42063 -4.343321,-14.026987 4.24437,-14.026987 1.79116,0 2.90045,0.54386 4.62326,2.26667 6.30551,6.305497 -1.29101,16.380047 -8.86763,11.760317 z M 61.061533,97.159213 c -19.471684,-4.04831 -32.66667,-24.86915 -32.66667,-51.54588 0,-12.69048 0.05923,-12.74798 9.336039,-9.06292 3.848512,1.52876 11.647294,3.96857 17.330631,5.42179 26.41345,6.75391 39.11676,22.92499 33.56163,42.72332 -1.70497,6.07648 -1.50809,6.19115 -18.46527,-10.75452 -14.70214,-14.69216 -17.298359,-16.74959 -18.193207,-14.41766 -1.059189,2.7602 4.179327,9.75127 18.329747,24.46201 11.89879,12.36995 8.71949,16.906297 -9.2329,13.17386 z m 732.224547,-2.99075 c -6.29121,-3.77101 -7.40991,-13.26956 -2.13471,-18.12527 5.92575,-5.45454 14.84324,-3.94579 18.41015,3.11482 5.29873,10.48869 -6.17113,21.067057 -16.27544,15.01045 z m 11.17685,-1.17038 c 8.32206,-5.5595 4.8362,-17.48671 -5.11067,-17.48671 -4.04697,0 -4.39884,0.13033 -6.77963,2.51111 -7.97355,7.97355 2.54355,21.21964 11.8903,14.9756 z m -8.95696,-2.26449 c -2.70749,-2.70749 -0.1382,-12.88889 3.25252,-12.88889 6.06794,0 8.86368,4.17812 4.90703,7.33333 -1.2256,0.97735 -1.22409,1.04531 0.0666,3 1.62854,2.46635 1.65583,3 0.15344,3 -0.65282,0 -1.90912,-1.18629 -2.82405,-2.66666 -0.91492,-1.48038 -2.17122,-2.66667 -2.82404,-2.66667 -0.9275,0 -1.17596,0.56341 -1.17596,2.66667 0,2.50229 -0.5252,3.25257 -1.55555,2.22222 z m 5.83396,-7.09962 c 2.02487,-1.48062 1.07765,-3.42548 -1.78395,-3.66285 -2.45316,-0.20348 -2.49446,-0.16761 -2.49446,2.16667 0,2.62759 1.84753,3.27368 4.27841,1.49618 z M 551.89912,56.433293 c -5.21343,-1.50563 -8.91395,-8.02006 -7.51243,-13.22494 2.48194,-9.21721 14.07762,-11.76124 19.74432,-4.3318 6.47789,8.49294 -1.91312,20.53677 -12.23189,17.55674 z"
       id="path1-7"
       sodipodi:nodetypes="ssscccsscssssssssssssssssssscccssssscsssssssscsssscsssssssssssssssssssssssssssssscsssssssssscsssssssssscssssssssscssssssssscsssssssssssssscssssssssssscssssssssssssssssssssssssssssssccssssssssssssssssssssssssssssssssssssssssssssssssssssssssssss" />
    <path
       style="fill:#696a69;fill-opacity:1"
       d="m 823.62711,177.90699 c -5.826,-3.12452 -7.95093,-9.21284 -5.65068,-16.19021 9.27466,-28.13288 42.74953,-108.369747 46.57971,-111.648247 12.24554,-10.48172 25.37558,-3.79455 33.39442,17.00789 1.21569,3.15375 10.04978,25.08304 19.6313,48.731757 22.65201,55.90876 22.64939,55.89614 12.84534,61.83161 -10.33846,6.259 -15.65441,1.19128 -25.34614,-24.16263 l -2.54838,-6.66666 -26.03331,-0.17433 -26.03331,-0.17432 -4.17049,11.17432 c -7.9055,21.18182 -12.80328,25.56157 -22.66846,20.27082 z m 71.32703,-51.8018 c 0,-0.81901 -18.10983,-49.997327 -18.58926,-50.480217 -0.28332,-0.28538 -4.51136,10.66462 -9.39562,24.33333 -4.88427,13.668707 -9.01788,25.227197 -9.1858,25.685527 -0.23965,0.65414 3.72391,0.83333 18.43269,0.83333 10.3059,0 18.73799,-0.16738 18.73799,-0.37197 z m 69.00149,52.02437 c -3.03913,-1.63939 -4.40501,-3.06185 -5.74767,-5.98573 -1.89717,-4.13147 -1.89783,-114.517727 -7.1e-4,-118.694237 4.80766,-10.58403 21.04659,-9.57182 24.02727,1.49768 1.4646,5.43889 0.6536,114.658457 -0.8742,117.734187 -2.80244,5.64194 -11.81529,8.46318 -17.40469,5.4481 z"
       id="path2"
       sodipodi:nodetypes="ssssssscccssssssssssssss" />
  </g>
</svg>
