<?xml version="1.0" encoding="UTF-8" standalone="no"?>
<svg
   version="1.1"
   viewBox="0 0 343.69525 195.14102"
   fill="none"
   stroke="none"
   stroke-linecap="square"
   stroke-miterlimit="10"
   id="svg27"
   sodipodi:docname="MCP draft.svg"
   width="343.69525"
   height="195.14102"
   inkscape:version="1.3.2 (091e20e, 2023-11-25)"
   xmlns:inkscape="http://www.inkscape.org/namespaces/inkscape"
   xmlns:sodipodi="http://sodipodi.sourceforge.net/DTD/sodipodi-0.dtd"
   xmlns="http://www.w3.org/2000/svg"
   xmlns:svg="http://www.w3.org/2000/svg">
  <defs
     id="defs27" />
  <sodipodi:namedview
     id="namedview27"
     pagecolor="#ffffff"
     bordercolor="#000000"
     borderopacity="0.25"
     inkscape:showpageshadow="2"
     inkscape:pageopacity="0.0"
     inkscape:pagecheckerboard="0"
     inkscape:deskcolor="#d1d1d1"
     inkscape:zoom="1.0974637"
     inkscape:cx="188.61671"
     inkscape:cy="182.23837"
     inkscape:window-width="1312"
     inkscape:window-height="983"
     inkscape:window-x="0"
     inkscape:window-y="38"
     inkscape:window-maximized="0"
     inkscape:current-layer="svg27">
    <inkscape:page
       x="0"
       y="0"
       width="343.69525"
       height="195.14102"
       id="page29"
       margin="0 0 0 0"
       bleed="0" />
  </sodipodi:namedview>
  <clipPath
     id="p.0">
    <path
       d="M 0,0 H 1024 V 768 H 0 Z"
       clip-rule="nonzero"
       id="path1" />
  </clipPath>
  <g
     clip-path="url(#p.0)"
     id="g27"
     transform="translate(-334.47681,-179.33106)">
    <path
       fill="#ffffff"
       d="M 530.6168,196.96588 H 668.0026 V 315.04462 H 530.6168 Z"
       fill-rule="evenodd"
       id="path4" />
    <path
       stroke="#999999"
       stroke-width="1"
       stroke-linejoin="round"
       stroke-linecap="butt"
       d="M 530.6168,196.96588 H 668.0026 V 315.04462 H 530.6168 Z"
       fill-rule="evenodd"
       id="path5" />
    <path
       fill="#999999"
       d="m 552.9071,221.32588 q -0.35937,0 -0.60937,-0.23438 -0.23438,-0.25 -0.23438,-0.59375 v -10.82812 q 0,-0.375 0.23438,-0.60938 0.25,-0.23437 0.60937,-0.23437 0.46875,0 0.73438,0.45312 l 5,10.03125 h -0.51563 l 4.89063,-10.03125 q 0.25,-0.45312 0.73437,-0.45312 0.34375,0 0.57813,0.23437 0.25,0.23438 0.25,0.60938 v 10.82812 q 0,0.34375 -0.25,0.59375 -0.25,0.23438 -0.57813,0.23438 -0.35937,0 -0.59375,-0.23438 -0.23437,-0.25 -0.23437,-0.59375 v -8.53125 l 0.3125,-0.0781 -4.1875,8.54687 q -0.28125,0.40625 -0.71875,0.40625 -0.53125,0 -0.76563,-0.48437 l -4.15625,-8.3125 0.32813,-0.0781 v 8.53125 q 0,0.34375 -0.25,0.59375 -0.23438,0.23438 -0.57813,0.23438 z m 20.47766,0.15625 q -1.29687,0 -2.4375,-0.48438 -1.125,-0.48437 -1.96875,-1.35937 -0.82812,-0.875 -1.29687,-2.03125 -0.46875,-1.17188 -0.46875,-2.53125 0,-1.34375 0.46875,-2.5 0.46875,-1.17188 1.29687,-2.03125 0.84375,-0.875 1.96875,-1.375 1.125,-0.5 2.4375,-0.5 1.23438,0 2.10938,0.32812 0.89062,0.3125 1.79687,1.04688 0.125,0.0937 0.1875,0.20312 0.0781,0.10938 0.0937,0.21875 0.0312,0.0937 0.0312,0.23438 0,0.3125 -0.21875,0.51562 -0.21875,0.1875 -0.51562,0.21875 -0.29688,0.0156 -0.59375,-0.20312 -0.59375,-0.51563 -1.23438,-0.78125 -0.625,-0.28125 -1.65625,-0.28125 -0.95312,0 -1.78125,0.39062 -0.82812,0.375 -1.46875,1.04688 -0.625,0.67187 -0.98437,1.5625 -0.34375,0.89062 -0.34375,1.90625 0,1.01562 0.34375,1.90625 0.35937,0.89062 0.98437,1.5625 0.64063,0.67187 1.46875,1.04687 0.82813,0.375 1.78125,0.375 0.8125,0 1.53125,-0.28125 0.73438,-0.28125 1.40625,-0.78125 0.29688,-0.20312 0.5625,-0.17187 0.28125,0.0156 0.46875,0.21875 0.20313,0.20312 0.20313,0.54687 0,0.17188 -0.0625,0.32813 -0.0625,0.14062 -0.1875,0.26562 -0.875,0.6875 -1.85938,1.04688 -0.98437,0.34375 -2.0625,0.34375 z m 7.66638,-0.15625 q -0.35937,0 -0.60937,-0.23438 -0.23438,-0.25 -0.23438,-0.59375 v -10.82812 q 0,-0.375 0.23438,-0.60938 0.25,-0.23437 0.60937,-0.23437 h 3.1875 q 1.20313,0 2.125,0.53125 0.9375,0.53125 1.45313,1.46875 0.53125,0.9375 0.53125,2.14062 0,1.17188 -0.53125,2.09375 -0.51563,0.90625 -1.45313,1.42188 -0.92187,0.5 -2.125,0.5 h -2.35937 v 3.51562 q 0,0.34375 -0.23438,0.59375 -0.23437,0.23438 -0.59375,0.23438 z m 0.82813,-5.875 h 2.35937 q 0.75,0 1.29688,-0.3125 0.5625,-0.32813 0.875,-0.875 0.32812,-0.5625 0.32812,-1.29688 0,-0.76562 -0.32812,-1.34375 -0.3125,-0.57812 -0.875,-0.90625 -0.54688,-0.34375 -1.29688,-0.34375 h -2.35937 z m 16.95294,6.03125 q -1.01562,0 -1.95312,-0.3125 -0.92188,-0.32813 -1.60938,-0.89063 -0.6875,-0.57812 -1.01562,-1.34375 -0.15625,-0.32812 0.0156,-0.60937 0.17188,-0.29688 0.5625,-0.375 0.29688,-0.0625 0.57813,0.0937 0.28125,0.14062 0.42187,0.45312 0.1875,0.39063 0.625,0.73438 0.4375,0.32812 1.0625,0.54687 0.625,0.20313 1.3125,0.20313 0.78125,0 1.42188,-0.23438 0.64062,-0.25 1.04687,-0.70312 0.40625,-0.45313 0.40625,-1.125 0,-0.84375 -0.67187,-1.51563 -0.65625,-0.67187 -2.1875,-0.84375 -1.98438,-0.1875 -3.125,-1.15625 -1.125,-0.98437 -1.125,-2.42187 0,-1.0625 0.59375,-1.79688 0.59375,-0.73437 1.60937,-1.10937 1.01563,-0.39063 2.26563,-0.39063 0.96875,0 1.6875,0.28125 0.73437,0.26563 1.28125,0.75 0.54687,0.46875 0.95312,1.125 0.21875,0.35938 0.17188,0.67188 -0.0312,0.3125 -0.3125,0.48437 -0.29688,0.1875 -0.65625,0.0781 -0.34375,-0.10938 -0.51563,-0.40625 -0.26562,-0.46875 -0.64062,-0.78125 -0.35938,-0.32813 -0.85938,-0.51563 -0.48437,-0.1875 -1.15625,-0.1875 -1.1875,-0.0156 -2,0.45313 -0.79687,0.45312 -0.79687,1.39062 0,0.48438 0.25,0.92188 0.25,0.4375 0.90625,0.76562 0.67187,0.3125 1.92187,0.4375 1.90625,0.20313 2.96875,1.17188 1.0625,0.95312 1.0625,2.54687 0,0.90625 -0.375,1.57813 -0.375,0.67187 -1.01562,1.14062 -0.625,0.45313 -1.4375,0.67188 -0.79688,0.21875 -1.67188,0.21875 z m 10.99237,-0.0937 q -1.32812,0 -2.35937,-0.5625 -1.03125,-0.57813 -1.625,-1.57813 -0.57813,-1 -0.57813,-2.29687 0,-1.3125 0.54688,-2.3125 0.5625,-1 1.53125,-1.5625 0.98437,-0.5625 2.25,-0.5625 1.25,0 2.14062,0.54687 0.90625,0.54688 1.375,1.51563 0.46875,0.96875 0.46875,2.23437 0,0.3125 -0.21875,0.51563 -0.20312,0.1875 -0.51562,0.1875 h -6.45313 v -1.28125 h 6.40625 l -0.65625,0.45312 q -0.0156,-0.79687 -0.32812,-1.42187 -0.29688,-0.64063 -0.85938,-1 -0.5625,-0.375 -1.35937,-0.375 -0.90625,0 -1.5625,0.40625 -0.64063,0.39062 -0.98438,1.09375 -0.32812,0.6875 -0.32812,1.5625 0,0.89062 0.39062,1.57812 0.40625,0.6875 1.10938,1.09375 0.70312,0.39063 1.60937,0.39063 0.5,0 1.01563,-0.1875 0.53125,-0.1875 0.84375,-0.42188 0.23437,-0.17187 0.51562,-0.17187 0.28125,-0.0156 0.5,0.15625 0.26563,0.23437 0.28125,0.53125 0.0156,0.28125 -0.25,0.5 -0.54687,0.42187 -1.35937,0.70312 -0.8125,0.26563 -1.54688,0.26563 z m 6.60791,-5.53125 q 0,-0.96875 0.46875,-1.71875 0.48438,-0.76563 1.28125,-1.20313 0.79688,-0.45312 1.76563,-0.45312 0.95312,0 1.42187,0.3125 0.46875,0.3125 0.35938,0.73437 -0.0469,0.23438 -0.1875,0.35938 -0.125,0.10937 -0.3125,0.14062 -0.17188,0.0312 -0.375,-0.0156 -1.03125,-0.20313 -1.84375,-0.0312 -0.8125,0.17187 -1.28125,0.65625 -0.46875,0.48437 -0.46875,1.21875 z m 0.0156,5.46875 q -0.375,0 -0.59375,-0.20313 -0.20313,-0.20312 -0.20313,-0.59375 v -7.15625 q 0,-0.39062 0.20313,-0.59375 0.21875,-0.20312 0.59375,-0.20312 0.40625,0 0.60937,0.20312 0.20313,0.1875 0.20313,0.59375 v 7.15625 q 0,0.375 -0.20313,0.59375 -0.20312,0.20313 -0.60937,0.20313 z m 9.94787,-0.0156 q -0.5,0 -0.78125,-0.53125 l -3.39062,-7.15625 q -0.125,-0.26562 -0.0312,-0.53125 0.10937,-0.26562 0.42187,-0.40625 0.26563,-0.14062 0.54688,-0.0469 0.28125,0.0937 0.42187,0.375 l 3.17188,6.82812 h -0.76563 l 3.14063,-6.82812 q 0.14062,-0.28125 0.4375,-0.375 0.29687,-0.0937 0.59375,0.0469 0.29687,0.125 0.39062,0.40625 0.0937,0.26563 -0.0312,0.53125 l -3.39062,7.15625 q -0.25,0.53125 -0.73438,0.53125 z m 9.58862,0.0781 q -1.32812,0 -2.35937,-0.5625 -1.03125,-0.57813 -1.625,-1.57813 -0.57813,-1 -0.57813,-2.29687 0,-1.3125 0.54688,-2.3125 0.5625,-1 1.53125,-1.5625 0.98437,-0.5625 2.25,-0.5625 1.25,0 2.14062,0.54687 0.90625,0.54688 1.375,1.51563 0.46875,0.96875 0.46875,2.23437 0,0.3125 -0.21875,0.51563 -0.20312,0.1875 -0.51562,0.1875 h -6.45313 v -1.28125 h 6.40625 l -0.65625,0.45312 q -0.0156,-0.79687 -0.32812,-1.42187 -0.29688,-0.64063 -0.85938,-1 -0.5625,-0.375 -1.35937,-0.375 -0.90625,0 -1.5625,0.40625 -0.64063,0.39062 -0.98438,1.09375 -0.32812,0.6875 -0.32812,1.5625 0,0.89062 0.39062,1.57812 0.40625,0.6875 1.10938,1.09375 0.70312,0.39063 1.60937,0.39063 0.5,0 1.01563,-0.1875 0.53125,-0.1875 0.84375,-0.42188 0.23437,-0.17187 0.51562,-0.17187 0.28125,-0.0156 0.5,0.15625 0.26563,0.23437 0.28125,0.53125 0.0156,0.28125 -0.25,0.5 -0.54687,0.42187 -1.35937,0.70312 -0.8125,0.26563 -1.54688,0.26563 z m 6.60791,-5.53125 q 0,-0.96875 0.46875,-1.71875 0.48438,-0.76563 1.28125,-1.20313 0.79688,-0.45312 1.76563,-0.45312 0.95312,0 1.42187,0.3125 0.46875,0.3125 0.35938,0.73437 -0.0469,0.23438 -0.1875,0.35938 -0.125,0.10937 -0.3125,0.14062 -0.17188,0.0312 -0.375,-0.0156 -1.03125,-0.20313 -1.84375,-0.0312 -0.8125,0.17187 -1.28125,0.65625 -0.46875,0.48437 -0.46875,1.21875 z m 0.0156,5.46875 q -0.375,0 -0.59375,-0.20313 -0.20313,-0.20312 -0.20313,-0.59375 v -7.15625 q 0,-0.39062 0.20313,-0.59375 0.21875,-0.20312 0.59375,-0.20312 0.40625,0 0.60937,0.20312 0.20313,0.1875 0.20313,0.59375 v 7.15625 q 0,0.375 -0.20313,0.59375 -0.20312,0.20313 -0.60937,0.20313 z"
       fill-rule="nonzero"
       id="path6" />
    <path
       fill="#ffffff"
       d="m 530.66406,233.5643 h 137.3858 v 74.77167 h -137.3858 z"
       fill-rule="evenodd"
       id="path7" />
    <path
       stroke="#999999"
       stroke-width="1"
       stroke-linejoin="round"
       stroke-linecap="butt"
       d="m 530.66406,233.5643 h 137.3858 v 74.77167 h -137.3858 z"
       fill-rule="evenodd"
       id="path8" />
    <path
       fill="#999999"
       d="m 552.6487,256.64432 q -0.23438,0 -0.40625,-0.17188 -0.15625,-0.17187 -0.15625,-0.40625 V 245.7693 q 0,-0.25 0.15625,-0.40625 0.17187,-0.17187 0.40625,-0.17187 0.35937,0 0.51562,0.29687 l 4.9375,9.82813 h -0.5 l 4.85938,-9.82813 q 0.17187,-0.29687 0.51562,-0.29687 0.23438,0 0.39063,0.17187 0.15625,0.15625 0.15625,0.40625 v 10.29689 q 0,0.23438 -0.15625,0.40625 -0.15625,0.17188 -0.39063,0.17188 -0.25,0 -0.42187,-0.17188 -0.17188,-0.17187 -0.17188,-0.40625 v -8.81251 l 0.25,0.0156 -4.32812,8.82814 q -0.15625,0.28125 -0.48438,0.28125 -0.375,0 -0.53125,-0.34375 l -4.35937,-8.71876 0.29687,-0.0625 v 8.81251 q 0,0.23438 -0.17187,0.40625 -0.17188,0.17188 -0.40625,0.17188 z m 18.95593,0.14062 q -1.1875,0 -2.21875,-0.45312 -1.03125,-0.45314 -1.82812,-1.26564 -0.78125,-0.8125 -1.21875,-1.875 -0.4375,-1.0625 -0.4375,-2.28125 0,-1.20313 0.42187,-2.26563 0.4375,-1.0625 1.21875,-1.85937 0.79688,-0.8125 1.82813,-1.26563 1.03125,-0.46875 2.23437,-0.46875 1.0625,0 1.92188,0.3125 0.85937,0.29688 1.67187,0.98438 0.125,0.0937 0.14063,0.23437 0.0312,0.14063 -0.0312,0.26563 -0.0469,0.125 -0.17188,0.1875 -0.0312,0.10937 -0.15625,0.17187 -0.10937,0.0625 -0.26562,0.0469 -0.14063,-0.0156 -0.29688,-0.14063 -0.5625,-0.5 -1.25,-0.73437 -0.67187,-0.25 -1.5625,-0.25 -0.95312,0 -1.78125,0.39062 -0.82812,0.375 -1.46875,1.04688 -0.625,0.65625 -0.98437,1.51562 -0.35938,0.85938 -0.35938,1.82813 0,1 0.35938,1.875 0.35937,0.85937 0.98437,1.51562 0.64063,0.65625 1.46875,1.03125 0.82813,0.375 1.78125,0.375 0.8125,0 1.53125,-0.26562 0.71875,-0.26563 1.35938,-0.76563 0.17187,-0.14062 0.35937,-0.10937 0.20313,0.0312 0.34375,0.17187 0.15625,0.14063 0.15625,0.375 0,0.125 -0.0469,0.21875 -0.0312,0.0937 -0.10938,0.20313 -0.75,0.68751 -1.67187,0.96876 -0.92188,0.28125 -1.92188,0.28125 z m 6.67792,-0.14062 q -0.25,0 -0.40625,-0.15625 -0.15625,-0.17188 -0.15625,-0.42188 V 245.7693 q 0,-0.25 0.15625,-0.40625 0.15625,-0.17187 0.40625,-0.17187 h 2.9375 q 1.07813,0 1.90625,0.48437 0.84375,0.46875 1.3125,1.3125 0.46875,0.82813 0.46875,1.9375 0,1.0625 -0.46875,1.89063 -0.46875,0.82812 -1.3125,1.3125 -0.82812,0.46875 -1.90625,0.46875 h -2.35937 v 3.46877 q 0,0.25 -0.17188,0.42187 -0.15625,0.15625 -0.40625,0.15625 z m 0.57813,-5.14064 h 2.35937 q 0.75,0 1.32813,-0.32813 0.59375,-0.32812 0.92187,-0.90625 0.32813,-0.59375 0.32813,-1.34375 0,-0.78125 -0.32813,-1.35937 -0.32812,-0.59375 -0.92187,-0.92188 -0.57813,-0.34375 -1.32813,-0.34375 h -2.35937 z m 15.63897,5.28126 q -0.9375,0 -1.73437,-0.26562 -0.79688,-0.26563 -1.39063,-0.76564 -0.57812,-0.5 -0.89062,-1.15625 -0.125,-0.23438 -0.0156,-0.4375 0.10938,-0.20313 0.375,-0.26563 0.20313,-0.0625 0.40625,0.0469 0.20313,0.0937 0.29688,0.29687 0.21875,0.42188 0.64062,0.76563 0.4375,0.34375 1.01563,0.53125 0.59375,0.17187 1.29687,0.17187 0.78125,0 1.375,-0.25 0.60938,-0.26562 0.95313,-0.75 0.34375,-0.5 0.34375,-1.20312 0,-0.89063 -0.67188,-1.53125 -0.65625,-0.64063 -2.0625,-0.82813 -1.71875,-0.20312 -2.6875,-1.0625 -0.95312,-0.85937 -0.95312,-2.09375 0,-0.90625 0.46875,-1.5625 0.48437,-0.65625 1.3125,-1.01562 0.84375,-0.35938 1.92187,-0.35938 0.8125,0 1.46875,0.26563 0.65625,0.25 1.14063,0.67187 0.5,0.40625 0.79687,0.90625 0.15625,0.23438 0.0937,0.45313 -0.0469,0.21875 -0.25,0.34375 -0.21875,0.0937 -0.45312,0.0312 -0.21875,-0.0781 -0.32813,-0.28125 -0.23437,-0.34375 -0.5625,-0.64063 -0.32812,-0.29687 -0.79687,-0.46875 -0.46875,-0.1875 -1.125,-0.20312 -1.15625,0 -1.85938,0.5 -0.70312,0.48437 -0.70312,1.42187 0,0.5 0.26562,0.92188 0.26563,0.42187 0.85938,0.71875 0.60937,0.29687 1.64062,0.45312 1.82813,0.25 2.71875,1.10938 0.89063,0.85937 0.89063,2.23437 0,0.79688 -0.29688,1.42188 -0.28125,0.60937 -0.79687,1.03125 -0.51563,0.40626 -1.21875,0.62501 -0.6875,0.21875 -1.48438,0.21875 z m 9.67121,-0.0625 q -1.1875,0 -2.10938,-0.51562 -0.90625,-0.53127 -1.4375,-1.45314 -0.51562,-0.92188 -0.51562,-2.10938 0,-1.20312 0.48437,-2.10937 0.5,-0.92188 1.35938,-1.45313 0.875,-0.53125 2,-0.53125 1.10937,0 1.9375,0.51563 0.82812,0.5 1.28125,1.39062 0.45312,0.89063 0.45312,2.04688 0,0.23437 -0.14062,0.375 -0.14063,0.125 -0.375,0.125 h -6.23438 v -0.9375 h 6.34375 l -0.625,0.45312 q 0.0156,-0.84375 -0.3125,-1.51562 -0.32812,-0.67188 -0.92187,-1.04688 -0.57813,-0.39062 -1.40625,-0.39062 -0.82813,0 -1.46875,0.40625 -0.625,0.39062 -0.96875,1.09375 -0.34375,0.6875 -0.34375,1.57812 0,0.89063 0.375,1.57813 0.39062,0.6875 1.0625,1.09375 0.6875,0.39062 1.5625,0.39062 0.53125,0 1.0625,-0.17187 0.53125,-0.1875 0.85937,-0.46875 0.15625,-0.14063 0.35938,-0.14063 0.21875,-0.0156 0.35937,0.10938 0.1875,0.17187 0.1875,0.375 0.0156,0.20312 -0.15625,0.35937 -0.48437,0.40627 -1.23437,0.68752 -0.75,0.26562 -1.4375,0.26562 z m 8.17083,0 q -0.875,0 -1.73437,-0.29687 -0.84375,-0.29688 -1.35938,-0.87502 -0.17187,-0.1875 -0.14062,-0.40625 0.0312,-0.21875 0.21875,-0.375 0.20312,-0.14062 0.42187,-0.10937 0.23438,0.0156 0.375,0.1875 0.34375,0.40625 0.92188,0.625 0.59375,0.21875 1.29687,0.21875 1.07813,0 1.5625,-0.375 0.48438,-0.375 0.5,-0.90625 0,-0.51563 -0.5,-0.85938 -0.5,-0.34375 -1.64062,-0.54687 -1.48438,-0.23438 -2.17188,-0.8125 -0.6875,-0.59375 -0.6875,-1.39063 0,-0.75 0.39063,-1.25 0.40625,-0.5 1.0625,-0.75 0.65625,-0.25 1.45312,-0.25 0.98438,0 1.6875,0.34375 0.71875,0.32813 1.15625,0.90625 0.14063,0.1875 0.10938,0.39063 -0.0312,0.20312 -0.23438,0.34375 -0.17187,0.0937 -0.40625,0.0625 -0.21875,-0.0312 -0.375,-0.21875 -0.375,-0.42188 -0.85937,-0.60938 -0.48438,-0.20312 -1.10938,-0.20312 -0.8125,0 -1.29687,0.32812 -0.48438,0.32813 -0.48438,0.82813 0,0.34375 0.1875,0.59375 0.1875,0.25 0.625,0.4375 0.45313,0.1875 1.26563,0.3125 1.09375,0.1875 1.73437,0.53125 0.64063,0.34375 0.90625,0.8125 0.26563,0.45312 0.26563,0.98437 0,0.70313 -0.40625,1.21875 -0.39063,0.51564 -1.10938,0.81252 -0.70312,0.29687 -1.625,0.29687 z m 7.89978,0 q -0.875,0 -1.73437,-0.29687 -0.84375,-0.29688 -1.35938,-0.87502 -0.17187,-0.1875 -0.14062,-0.40625 0.0312,-0.21875 0.21875,-0.375 0.20312,-0.14062 0.42187,-0.10937 0.23438,0.0156 0.375,0.1875 0.34375,0.40625 0.92188,0.625 0.59375,0.21875 1.29687,0.21875 1.07813,0 1.5625,-0.375 0.48438,-0.375 0.5,-0.90625 0,-0.51563 -0.5,-0.85938 -0.5,-0.34375 -1.64062,-0.54687 -1.48438,-0.23438 -2.17188,-0.8125 -0.6875,-0.59375 -0.6875,-1.39063 0,-0.75 0.39063,-1.25 0.40625,-0.5 1.0625,-0.75 0.65625,-0.25 1.45312,-0.25 0.98438,0 1.6875,0.34375 0.71875,0.32813 1.15625,0.90625 0.14063,0.1875 0.10938,0.39063 -0.0312,0.20312 -0.23438,0.34375 -0.17187,0.0937 -0.40625,0.0625 -0.21875,-0.0312 -0.375,-0.21875 -0.375,-0.42188 -0.85937,-0.60938 -0.48438,-0.20312 -1.10938,-0.20312 -0.8125,0 -1.29687,0.32812 -0.48438,0.32813 -0.48438,0.82813 0,0.34375 0.1875,0.59375 0.1875,0.25 0.625,0.4375 0.45313,0.1875 1.26563,0.3125 1.09375,0.1875 1.73437,0.53125 0.64063,0.34375 0.90625,0.8125 0.26563,0.45312 0.26563,0.98437 0,0.70313 -0.40625,1.21875 -0.39063,0.51564 -1.10938,0.81252 -0.70312,0.29687 -1.625,0.29687 z m 5.89972,-0.0781 q -0.26562,0 -0.42187,-0.15625 -0.15625,-0.15625 -0.15625,-0.42188 v -6.87501 q 0,-0.25 0.15625,-0.40625 0.15625,-0.15625 0.42187,-0.15625 0.25,0 0.40625,0.15625 0.15625,0.15625 0.15625,0.40625 v 6.87501 q 0,0.26563 -0.15625,0.42188 -0.15625,0.15625 -0.40625,0.15625 z m -0.0156,-9.54689 q -0.32813,0 -0.5625,-0.23438 -0.23438,-0.23437 -0.23438,-0.5625 0,-0.375 0.23438,-0.57812 0.25,-0.21875 0.57812,-0.21875 0.29688,0 0.53125,0.21875 0.25,0.20312 0.25,0.57812 0,0.32813 -0.23437,0.5625 -0.23438,0.23438 -0.5625,0.23438 z m 7.09509,9.62501 q -1.17187,0 -2.09375,-0.53125 -0.92187,-0.53126 -1.45312,-1.45314 -0.53125,-0.92187 -0.53125,-2.09375 0,-1.1875 0.53125,-2.10937 0.53125,-0.92188 1.45312,-1.45313 0.92188,-0.53125 2.09375,-0.53125 1.17188,0 2.07813,0.53125 0.92187,0.53125 1.45312,1.45313 0.53125,0.92187 0.54688,2.10937 0,1.17188 -0.54688,2.09375 -0.53125,0.92188 -1.45312,1.45314 -0.90625,0.53125 -2.07813,0.53125 z m 0,-1.03126 q 0.84375,0 1.51563,-0.39063 0.6875,-0.40625 1.0625,-1.09375 0.375,-0.6875 0.375,-1.5625 0,-0.875 -0.375,-1.5625 -0.375,-0.70312 -1.0625,-1.09375 -0.67188,-0.40625 -1.51563,-0.40625 -0.84375,0 -1.53125,0.40625 -0.67187,0.39063 -1.0625,1.09375 -0.375,0.6875 -0.375,1.5625 0,0.875 0.375,1.5625 0.39063,0.6875 1.0625,1.09375 0.6875,0.39063 1.53125,0.39063 z m 13.14105,0.95314 q -0.25,0 -0.40625,-0.15625 -0.15625,-0.17188 -0.15625,-0.40625 v -3.81252 q 0,-0.90625 -0.34375,-1.48437 -0.34375,-0.59375 -0.9375,-0.875 -0.59375,-0.29688 -1.34375,-0.29688 -0.71875,0 -1.29687,0.28125 -0.57813,0.26563 -0.92188,0.75 -0.32812,0.48438 -0.32812,1.10938 h -0.8125 q 0.0312,-0.92188 0.5,-1.64063 0.46875,-0.73437 1.23437,-1.15625 0.78125,-0.42187 1.73438,-0.42187 1.04687,0 1.85937,0.4375 0.82813,0.4375 1.29688,1.28125 0.48437,0.82812 0.48437,2.01562 v 3.81252 q 0,0.23437 -0.17187,0.40625 -0.15625,0.15625 -0.39063,0.15625 z m -6.29687,0 q -0.26563,0 -0.42188,-0.15625 -0.15625,-0.15625 -0.15625,-0.40625 v -6.89064 q 0,-0.25 0.15625,-0.40625 0.15625,-0.15625 0.42188,-0.15625 0.25,0 0.40625,0.15625 0.15625,0.15625 0.15625,0.40625 v 6.89064 q 0,0.25 -0.15625,0.40625 -0.15625,0.15625 -0.40625,0.15625 z"
       fill-rule="nonzero"
       id="path9" />
    <path
       fill="#999999"
       d="m 530.66406,269.38315 h 137.3858 v 45.66928 h -137.3858 z"
       fill-rule="evenodd"
       id="path10" />
    <path
       stroke="#999999"
       stroke-width="1"
       stroke-linejoin="round"
       stroke-linecap="butt"
       d="m 530.66406,269.38315 h 137.3858 v 45.66928 h -137.3858 z"
       fill-rule="evenodd"
       id="path11" />
    <path
       fill="#ffffff"
       d="m 544.7865,288.2978 q -0.23437,0 -0.40625,-0.17188 -0.15625,-0.17187 -0.15625,-0.40625 V 277.4228 q 0,-0.25 0.15625,-0.40625 0.17188,-0.17188 0.40625,-0.17188 0.35938,0 0.51563,0.29688 l 4.9375,9.82812 h -0.5 l 4.85937,-9.82812 q 0.17188,-0.29688 0.51563,-0.29688 0.23437,0 0.39062,0.17188 0.15625,0.15625 0.15625,0.40625 v 10.29687 q 0,0.23438 -0.15625,0.40625 -0.15625,0.17188 -0.39062,0.17188 -0.25,0 -0.42188,-0.17188 -0.17187,-0.17187 -0.17187,-0.40625 v -8.8125 l 0.25,0.0156 -4.32813,8.82812 q -0.15625,0.28125 -0.48437,0.28125 -0.375,0 -0.53125,-0.34375 l -4.35938,-8.71875 0.29688,-0.0625 v 8.8125 q 0,0.23438 -0.17188,0.40625 -0.17187,0.17188 -0.40625,0.17188 z m 18.95593,0.14062 q -1.1875,0 -2.21875,-0.45312 -1.03125,-0.45313 -1.82812,-1.26563 -0.78125,-0.8125 -1.21875,-1.875 -0.4375,-1.0625 -0.4375,-2.28125 0,-1.20312 0.42187,-2.26562 0.4375,-1.0625 1.21875,-1.85938 0.79688,-0.8125 1.82813,-1.26562 1.03125,-0.46875 2.23437,-0.46875 1.0625,0 1.92188,0.3125 0.85937,0.29687 1.67187,0.98437 0.125,0.0937 0.14063,0.23438 0.0312,0.14062 -0.0312,0.26562 -0.0469,0.125 -0.17188,0.1875 -0.0312,0.10938 -0.15625,0.17188 -0.10937,0.0625 -0.26562,0.0469 -0.14063,-0.0156 -0.29688,-0.14062 -0.5625,-0.5 -1.25,-0.73438 -0.67187,-0.25 -1.5625,-0.25 -0.95312,0 -1.78125,0.39063 -0.82812,0.375 -1.46875,1.04687 -0.625,0.65625 -0.98437,1.51563 -0.35938,0.85937 -0.35938,1.82812 0,1 0.35938,1.875 0.35937,0.85938 0.98437,1.51563 0.64063,0.65625 1.46875,1.03125 0.82813,0.375 1.78125,0.375 0.8125,0 1.53125,-0.26563 0.71875,-0.26562 1.35938,-0.76562 0.17187,-0.14063 0.35937,-0.10938 0.20313,0.0312 0.34375,0.17188 0.15625,0.14062 0.15625,0.375 0,0.125 -0.0469,0.21875 -0.0312,0.0937 -0.10938,0.20312 -0.75,0.6875 -1.67187,0.96875 -0.92188,0.28125 -1.92188,0.28125 z m 6.67792,-0.14062 q -0.25,0 -0.40625,-0.15625 -0.15625,-0.17188 -0.15625,-0.42188 V 277.4228 q 0,-0.25 0.15625,-0.40625 0.15625,-0.17188 0.40625,-0.17188 h 2.9375 q 1.07813,0 1.90625,0.48438 0.84375,0.46875 1.3125,1.3125 0.46875,0.82812 0.46875,1.9375 0,1.0625 -0.46875,1.89062 -0.46875,0.82813 -1.3125,1.3125 -0.82812,0.46875 -1.90625,0.46875 h -2.35937 v 3.46875 q 0,0.25 -0.17188,0.42188 -0.15625,0.15625 -0.40625,0.15625 z m 0.57813,-5.14063 h 2.35937 q 0.75,0 1.32813,-0.32812 0.59375,-0.32813 0.92187,-0.90625 0.32813,-0.59375 0.32813,-1.34375 0,-0.78125 -0.32813,-1.35938 -0.32812,-0.59375 -0.92187,-0.92187 -0.57813,-0.34375 -1.32813,-0.34375 h -2.35937 z m 15.45147,5.14063 q -0.23437,0 -0.40625,-0.17188 -0.17187,-0.17187 -0.17187,-0.40625 v -10.875 h 1.14062 v 10.875 q 0,0.23438 -0.15625,0.40625 -0.15625,0.17188 -0.40625,0.17188 z m -4.04687,-10.40625 q -0.23438,0 -0.39063,-0.14063 -0.14062,-0.15625 -0.14062,-0.375 0,-0.23437 0.14062,-0.375 0.15625,-0.15625 0.39063,-0.15625 h 8.10937 q 0.23438,0 0.375,0.15625 0.14063,0.14063 0.14063,0.375 0,0.21875 -0.14063,0.375 -0.14062,0.14063 -0.375,0.14063 z m 8.57782,5.46875 q 0.0469,-0.90625 0.48437,-1.625 0.4375,-0.71875 1.125,-1.125 0.70313,-0.42188 1.54688,-0.42188 0.67187,0 1.03125,0.20313 0.375,0.1875 0.29687,0.54687 -0.0625,0.21875 -0.20312,0.29688 -0.14063,0.0781 -0.34375,0.0625 -0.1875,-0.0156 -0.4375,-0.0312 -0.82813,-0.0781 -1.46875,0.17187 -0.625,0.23438 -1,0.73438 -0.375,0.5 -0.375,1.1875 z m 0.0937,4.9375 q -0.26563,0 -0.42188,-0.14063 -0.14062,-0.15625 -0.14062,-0.42187 v -6.89063 q 0,-0.26562 0.14062,-0.40625 0.15625,-0.15625 0.42188,-0.15625 0.26562,0 0.40625,0.15625 0.15625,0.14063 0.15625,0.40625 v 6.89063 q 0,0.26562 -0.15625,0.42187 -0.14063,0.14063 -0.40625,0.14063 z m 9.09466,0.0781 q -1.125,0 -2.01562,-0.53125 -0.89063,-0.54687 -1.42188,-1.46875 -0.51562,-0.92187 -0.51562,-2.07812 0,-1.17188 0.53125,-2.09375 0.54687,-0.92188 1.46875,-1.45313 0.92187,-0.54687 2.07812,-0.54687 1.15625,0 2.0625,0.54687 0.92188,0.53125 1.45313,1.45313 0.54687,0.92187 0.5625,2.09375 l -0.45313,0.34375 q 0,1.0625 -0.5,1.90625 -0.48437,0.84375 -1.32812,1.34375 -0.84375,0.48437 -1.92188,0.48437 z m 0.125,-1.03125 q 0.84375,0 1.51563,-0.39062 0.67187,-0.40625 1.04687,-1.09375 0.39063,-0.70313 0.39063,-1.5625 0,-0.875 -0.39063,-1.5625 -0.375,-0.70313 -1.04687,-1.09375 -0.67188,-0.40625 -1.51563,-0.40625 -0.82812,0 -1.51562,0.40625 -0.67188,0.39062 -1.0625,1.09375 -0.39063,0.6875 -0.39063,1.5625 0,0.85937 0.39063,1.5625 0.39062,0.6875 1.0625,1.09375 0.6875,0.39062 1.51562,0.39062 z m 3.5,0.95313 q -0.25,0 -0.40625,-0.15625 -0.15625,-0.15625 -0.15625,-0.40625 v -2.5 l 0.26563,-1.15625 0.875,0.21875 v 3.4375 q 0,0.25 -0.17188,0.40625 -0.15625,0.15625 -0.40625,0.15625 z m 9.64106,0 q -0.25,0 -0.40625,-0.15625 -0.15625,-0.17188 -0.15625,-0.40625 v -3.8125 q 0,-0.90625 -0.34375,-1.48438 -0.34375,-0.59375 -0.9375,-0.875 -0.59375,-0.29687 -1.34375,-0.29687 -0.71875,0 -1.29688,0.28125 -0.57812,0.26562 -0.92187,0.75 -0.32813,0.48437 -0.32813,1.10937 h -0.8125 q 0.0312,-0.92187 0.5,-1.64062 0.46875,-0.73438 1.23438,-1.15625 0.78125,-0.42188 1.73437,-0.42188 1.04688,0 1.85938,0.4375 0.82812,0.4375 1.29687,1.28125 0.48438,0.82813 0.48438,2.01563 v 3.8125 q 0,0.23437 -0.17188,0.40625 -0.15625,0.15625 -0.39062,0.15625 z m -6.29688,0 q -0.26562,0 -0.42187,-0.15625 -0.15625,-0.15625 -0.15625,-0.40625 v -6.89063 q 0,-0.25 0.15625,-0.40625 0.15625,-0.15625 0.42187,-0.15625 0.25,0 0.40625,0.15625 0.15625,0.15625 0.15625,0.40625 v 6.89063 q 0,0.25 -0.15625,0.40625 -0.15625,0.15625 -0.40625,0.15625 z m 12.15668,0.0781 q -0.875,0 -1.73438,-0.29687 -0.84375,-0.29688 -1.35937,-0.875 -0.17188,-0.1875 -0.14063,-0.40625 0.0312,-0.21875 0.21875,-0.375 0.20313,-0.14063 0.42188,-0.10938 0.23437,0.0156 0.375,0.1875 0.34375,0.40625 0.92187,0.625 0.59375,0.21875 1.29688,0.21875 1.07812,0 1.5625,-0.375 0.48437,-0.375 0.5,-0.90625 0,-0.51562 -0.5,-0.85937 -0.5,-0.34375 -1.64063,-0.54688 -1.48437,-0.23437 -2.17187,-0.8125 -0.6875,-0.59375 -0.6875,-1.39062 0,-0.75 0.39062,-1.25 0.40625,-0.5 1.0625,-0.75 0.65625,-0.25 1.45313,-0.25 0.98437,0 1.6875,0.34375 0.71875,0.32812 1.15625,0.90625 0.14062,0.1875 0.10937,0.39062 -0.0312,0.20313 -0.23437,0.34375 -0.17188,0.0937 -0.40625,0.0625 -0.21875,-0.0312 -0.375,-0.21875 -0.375,-0.42187 -0.85938,-0.60937 -0.48437,-0.20313 -1.10937,-0.20313 -0.8125,0 -1.29688,0.32813 -0.48437,0.32812 -0.48437,0.82812 0,0.34375 0.1875,0.59375 0.1875,0.25 0.625,0.4375 0.45312,0.1875 1.26562,0.3125 1.09375,0.1875 1.73438,0.53125 0.64062,0.34375 0.90625,0.8125 0.26562,0.45313 0.26562,0.98438 0,0.70312 -0.40625,1.21875 -0.39062,0.51562 -1.10937,0.8125 -0.70313,0.29687 -1.625,0.29687 z m 5.6654,3.34375 q -0.26562,0 -0.42187,-0.15625 -0.15625,-0.14062 -0.15625,-0.40625 v -6.92187 q 0.0156,-1.14063 0.54687,-2.04688 0.54688,-0.92187 1.45313,-1.45312 0.92187,-0.53125 2.0625,-0.53125 1.17187,0 2.09375,0.54687 0.92187,0.53125 1.45312,1.45313 0.54688,0.92187 0.54688,2.09375 0,1.15625 -0.53125,2.07812 -0.51563,0.92188 -1.40625,1.46875 -0.89063,0.53125 -2.01563,0.53125 -0.98437,0 -1.78125,-0.42187 -0.79687,-0.42188 -1.28125,-1.10938 v 4.3125 q 0,0.26563 -0.15625,0.40625 -0.15625,0.15625 -0.40625,0.15625 z m 3.48438,-4.375 q 0.85937,0 1.53125,-0.39062 0.67187,-0.40625 1.0625,-1.09375 0.39062,-0.70313 0.39062,-1.5625 0,-0.875 -0.39062,-1.5625 -0.39063,-0.70313 -1.0625,-1.09375 -0.67188,-0.40625 -1.53125,-0.40625 -0.82813,0 -1.51563,0.40625 -0.67187,0.39062 -1.04687,1.09375 -0.375,0.6875 -0.375,1.5625 0,0.85937 0.375,1.5625 0.375,0.6875 1.04687,1.09375 0.6875,0.39062 1.51563,0.39062 z m 9.95575,1.03125 q -1.17188,0 -2.09375,-0.53125 -0.92188,-0.53125 -1.45313,-1.45312 -0.53125,-0.92188 -0.53125,-2.09375 0,-1.1875 0.53125,-2.10938 0.53125,-0.92187 1.45313,-1.45312 0.92187,-0.53125 2.09375,-0.53125 1.17187,0 2.07812,0.53125 0.92188,0.53125 1.45313,1.45312 0.53125,0.92188 0.54687,2.10938 0,1.17187 -0.54687,2.09375 -0.53125,0.92187 -1.45313,1.45312 -0.90625,0.53125 -2.07812,0.53125 z m 0,-1.03125 q 0.84375,0 1.51562,-0.39062 0.6875,-0.40625 1.0625,-1.09375 0.375,-0.6875 0.375,-1.5625 0,-0.875 -0.375,-1.5625 -0.375,-0.70313 -1.0625,-1.09375 -0.67187,-0.40625 -1.51562,-0.40625 -0.84375,0 -1.53125,0.40625 -0.67188,0.39062 -1.0625,1.09375 -0.375,0.6875 -0.375,1.5625 0,0.875 0.375,1.5625 0.39062,0.6875 1.0625,1.09375 0.6875,0.39062 1.53125,0.39062 z m 6.7348,-3.98437 q 0.0469,-0.90625 0.48437,-1.625 0.4375,-0.71875 1.125,-1.125 0.70313,-0.42188 1.54688,-0.42188 0.67187,0 1.03125,0.20313 0.375,0.1875 0.29687,0.54687 -0.0625,0.21875 -0.20312,0.29688 -0.14063,0.0781 -0.34375,0.0625 -0.1875,-0.0156 -0.4375,-0.0312 -0.82813,-0.0781 -1.46875,0.17187 -0.625,0.23438 -1,0.73438 -0.375,0.5 -0.375,1.1875 z m 0.0937,4.9375 q -0.26563,0 -0.42188,-0.14063 -0.14062,-0.15625 -0.14062,-0.42187 v -6.89063 q 0,-0.26562 0.14062,-0.40625 0.15625,-0.15625 0.42188,-0.15625 0.26562,0 0.40625,0.15625 0.15625,0.14063 0.15625,0.40625 v 6.89063 q 0,0.26562 -0.15625,0.42187 -0.14063,0.14063 -0.40625,0.14063 z m 9.29071,0 q -0.78125,0 -1.39063,-0.35938 -0.59375,-0.375 -0.95312,-1.01562 -0.34375,-0.64063 -0.34375,-1.45313 v -7.17187 q 0,-0.25 0.14062,-0.40625 0.15625,-0.15625 0.40625,-0.15625 0.25,0 0.40625,0.15625 0.17188,0.15625 0.17188,0.40625 v 7.17187 q 0,0.75 0.4375,1.23438 0.4375,0.46875 1.125,0.46875 h 0.39062 q 0.23438,0 0.375,0.15625 0.15625,0.15625 0.15625,0.40625 0,0.25 -0.17187,0.40625 -0.17188,0.15625 -0.4375,0.15625 z m -3.64063,-6.73438 q -0.21875,0 -0.375,-0.14062 -0.14062,-0.14063 -0.14062,-0.34375 0,-0.23438 0.14062,-0.35938 0.15625,-0.14062 0.375,-0.14062 h 3.73438 q 0.21875,0 0.35937,0.14062 0.15625,0.125 0.15625,0.35938 0,0.20312 -0.15625,0.34375 -0.14062,0.14062 -0.35937,0.14062 z"
       fill-rule="nonzero"
       id="path12" />
    <path
       fill="#ffffff"
       d="m 574.1676,309.71967 q -0.17188,0 -0.3125,-0.0937 -0.125,-0.0781 -0.23438,-0.28125 -0.85937,-1.76563 -1.28125,-3.53125 -0.42187,-1.76563 -0.42187,-3.54688 0,-1.76562 0.42187,-3.53125 0.42188,-1.76562 1.28125,-3.51562 0.1875,-0.39063 0.54688,-0.39063 0.23437,0 0.39062,0.17188 0.17188,0.15625 0.17188,0.39062 0,0.17188 -0.0937,0.32813 -1.60938,3.26562 -1.60938,6.5625 0,1.64062 0.40625,3.29687 0.42188,1.65625 1.21875,3.28125 0.0937,0.17188 0.0937,0.3125 0,0.23438 -0.17187,0.39063 -0.15625,0.15625 -0.40625,0.15625 z m 5.70514,-3.28125 q -0.9375,0 -1.73438,-0.26563 -0.79687,-0.26562 -1.39062,-0.76562 -0.57813,-0.5 -0.89063,-1.15625 -0.125,-0.23438 -0.0156,-0.4375 0.10937,-0.20313 0.375,-0.26563 0.20312,-0.0625 0.40625,0.0469 0.20312,0.0937 0.29687,0.29687 0.21875,0.42188 0.64063,0.76563 0.4375,0.34375 1.01562,0.53125 0.59375,0.17187 1.29688,0.17187 0.78125,0 1.375,-0.25 0.60937,-0.26562 0.95312,-0.75 0.34375,-0.5 0.34375,-1.20312 0,-0.89063 -0.67187,-1.53125 -0.65625,-0.64063 -2.0625,-0.82813 -1.71875,-0.20312 -2.6875,-1.0625 -0.95313,-0.85937 -0.95313,-2.09375 0,-0.90625 0.46875,-1.5625 0.48438,-0.65625 1.3125,-1.01562 0.84375,-0.35938 1.92188,-0.35938 0.8125,0 1.46875,0.26563 0.65625,0.25 1.14062,0.67187 0.5,0.40625 0.79688,0.90625 0.15625,0.23438 0.0937,0.45313 -0.0469,0.21875 -0.25,0.34375 -0.21875,0.0937 -0.45313,0.0312 -0.21875,-0.0781 -0.32812,-0.28125 -0.23438,-0.34375 -0.5625,-0.64063 -0.32813,-0.29687 -0.79688,-0.46875 -0.46875,-0.1875 -1.125,-0.20312 -1.15625,0 -1.85937,0.5 -0.70313,0.48437 -0.70313,1.42187 0,0.5 0.26563,0.92188 0.26562,0.42187 0.85937,0.71875 0.60938,0.29687 1.64063,0.45312 1.82812,0.25 2.71875,1.10938 0.89062,0.85937 0.89062,2.23437 0,0.79688 -0.29687,1.42188 -0.28125,0.60937 -0.79688,1.03125 -0.51562,0.40625 -1.21875,0.625 -0.6875,0.21875 -1.48437,0.21875 z m 9.6712,-0.0625 q -1.1875,0 -2.10937,-0.51563 -0.90625,-0.53125 -1.4375,-1.45312 -0.51563,-0.92188 -0.51563,-2.10938 0,-1.20312 0.48438,-2.10937 0.5,-0.92188 1.35937,-1.45313 0.875,-0.53125 2,-0.53125 1.10938,0 1.9375,0.51563 0.82813,0.5 1.28125,1.39062 0.45313,0.89063 0.45313,2.04688 0,0.23437 -0.14063,0.375 -0.14062,0.125 -0.375,0.125 h -6.23437 v -0.9375 h 6.34375 l -0.625,0.45312 q 0.0156,-0.84375 -0.3125,-1.51562 -0.32813,-0.67188 -0.92188,-1.04688 -0.57812,-0.39062 -1.40625,-0.39062 -0.82812,0 -1.46875,0.40625 -0.625,0.39062 -0.96875,1.09375 -0.34375,0.6875 -0.34375,1.57812 0,0.89063 0.375,1.57813 0.39063,0.6875 1.0625,1.09375 0.6875,0.39062 1.5625,0.39062 0.53125,0 1.0625,-0.17187 0.53125,-0.1875 0.85938,-0.46875 0.15625,-0.14063 0.35937,-0.14063 0.21875,-0.0156 0.35938,0.10938 0.1875,0.17187 0.1875,0.375 0.0156,0.20312 -0.15625,0.35937 -0.48438,0.40625 -1.23438,0.6875 -0.75,0.26563 -1.4375,0.26563 z m 5.82709,-5.01563 q 0.0469,-0.90625 0.48438,-1.625 0.4375,-0.71875 1.125,-1.125 0.70312,-0.42187 1.54687,-0.42187 0.67188,0 1.03125,0.20312 0.375,0.1875 0.29688,0.54688 -0.0625,0.21875 -0.20313,0.29687 -0.14062,0.0781 -0.34375,0.0625 -0.1875,-0.0156 -0.4375,-0.0312 -0.82812,-0.0781 -1.46875,0.17188 -0.625,0.23437 -1,0.73437 -0.375,0.5 -0.375,1.1875 z m 0.0937,4.9375 q -0.26562,0 -0.42187,-0.14062 -0.14063,-0.15625 -0.14063,-0.42188 v -6.89062 q 0,-0.26563 0.14063,-0.40625 0.15625,-0.15625 0.42187,-0.15625 0.26563,0 0.40625,0.15625 0.15625,0.14062 0.15625,0.40625 v 6.89062 q 0,0.26563 -0.15625,0.42188 -0.14062,0.14062 -0.40625,0.14062 z m 8.90009,0 q -0.35938,0 -0.53125,-0.375 l -3.25,-6.90625 q -0.0937,-0.1875 -0.0156,-0.375 0.0781,-0.20312 0.29688,-0.29687 0.20312,-0.10938 0.39062,-0.0312 0.1875,0.0625 0.29688,0.26562 l 3.125,6.75 h -0.60938 l 3.07813,-6.75 q 0.0937,-0.20312 0.29687,-0.26562 0.21875,-0.0781 0.42188,0.0156 0.20312,0.0937 0.28125,0.29688 0.0781,0.20312 -0.0156,0.375 l -3.21875,6.92187 q -0.17187,0.375 -0.54687,0.375 z m 8.70227,0.0781 q -1.1875,0 -2.10938,-0.51563 -0.90625,-0.53125 -1.4375,-1.45312 -0.51562,-0.92188 -0.51562,-2.10938 0,-1.20312 0.48437,-2.10937 0.5,-0.92188 1.35938,-1.45313 0.875,-0.53125 2,-0.53125 1.10937,0 1.9375,0.51563 0.82812,0.5 1.28125,1.39062 0.45312,0.89063 0.45312,2.04688 0,0.23437 -0.14062,0.375 -0.14063,0.125 -0.375,0.125 h -6.23438 v -0.9375 h 6.34375 l -0.625,0.45312 q 0.0156,-0.84375 -0.3125,-1.51562 -0.32812,-0.67188 -0.92187,-1.04688 -0.57813,-0.39062 -1.40625,-0.39062 -0.82813,0 -1.46875,0.40625 -0.625,0.39062 -0.96875,1.09375 -0.34375,0.6875 -0.34375,1.57812 0,0.89063 0.375,1.57813 0.39062,0.6875 1.0625,1.09375 0.6875,0.39062 1.5625,0.39062 0.53125,0 1.0625,-0.17187 0.53125,-0.1875 0.85937,-0.46875 0.15625,-0.14063 0.35938,-0.14063 0.21875,-0.0156 0.35937,0.10938 0.1875,0.17187 0.1875,0.375 0.0156,0.20312 -0.15625,0.35937 -0.48437,0.40625 -1.23437,0.6875 -0.75,0.26563 -1.4375,0.26563 z m 5.82708,-5.01563 q 0.0469,-0.90625 0.48438,-1.625 0.4375,-0.71875 1.125,-1.125 0.70312,-0.42187 1.54687,-0.42187 0.67188,0 1.03125,0.20312 0.375,0.1875 0.29688,0.54688 -0.0625,0.21875 -0.20313,0.29687 -0.14062,0.0781 -0.34375,0.0625 -0.1875,-0.0156 -0.4375,-0.0312 -0.82812,-0.0781 -1.46875,0.17188 -0.625,0.23437 -1,0.73437 -0.375,0.5 -0.375,1.1875 z m 0.0937,4.9375 q -0.26562,0 -0.42187,-0.14062 -0.14063,-0.15625 -0.14063,-0.42188 v -6.89062 q 0,-0.26563 0.14063,-0.40625 0.15625,-0.15625 0.42187,-0.15625 0.26563,0 0.40625,0.15625 0.15625,0.14062 0.15625,0.40625 v 6.89062 q 0,0.26563 -0.15625,0.42188 -0.14062,0.14062 -0.40625,0.14062 z m 5.55634,3.42188 q -0.23438,0 -0.40625,-0.15625 -0.15625,-0.15625 -0.15625,-0.39063 0,-0.14062 0.0781,-0.3125 0.8125,-1.625 1.21875,-3.28125 0.42188,-1.65625 0.42188,-3.29687 0,-3.29688 -1.625,-6.5625 -0.0781,-0.15625 -0.0937,-0.32813 0,-0.23437 0.17187,-0.39062 0.17188,-0.17188 0.39063,-0.17188 0.375,0 0.5625,0.39063 0.85937,1.75 1.28125,3.51562 0.42187,1.76563 0.42187,3.53125 0,1.78125 -0.4375,3.54688 -0.42187,1.76562 -1.26562,3.53125 -0.125,0.20312 -0.25,0.28125 -0.125,0.0937 -0.3125,0.0937 z"
       fill-rule="nonzero"
       id="path13" />
    <path
       fill="#ffffff"
       d="M 346.61942,196.9685 H 484.00525 V 315.04723 H 346.61942 Z"
       fill-rule="evenodd"
       id="path14" />
    <path
       stroke="#999999"
       stroke-width="1"
       stroke-linejoin="round"
       stroke-linecap="butt"
       d="M 346.61942,196.9685 H 484.00525 V 315.04723 H 346.61942 Z"
       fill-rule="evenodd"
       id="path15" />
    <path
       fill="#999999"
       d="m 371.68576,221.3285 q -0.35937,0 -0.60937,-0.23438 -0.23438,-0.25 -0.23438,-0.59375 v -10.82812 q 0,-0.375 0.23438,-0.60938 0.25,-0.23437 0.60937,-0.23437 0.46875,0 0.73438,0.45312 l 5,10.03125 h -0.51563 l 4.89063,-10.03125 q 0.25,-0.45312 0.73437,-0.45312 0.34375,0 0.57813,0.23437 0.25,0.23438 0.25,0.60938 v 10.82812 q 0,0.34375 -0.25,0.59375 -0.25,0.23438 -0.57813,0.23438 -0.35937,0 -0.59375,-0.23438 -0.23437,-0.25 -0.23437,-0.59375 v -8.53125 l 0.3125,-0.0781 -4.1875,8.54687 q -0.28125,0.40625 -0.71875,0.40625 -0.53125,0 -0.76563,-0.48437 l -4.15625,-8.3125 0.32813,-0.0781 v 8.53125 q 0,0.34375 -0.25,0.59375 -0.23438,0.23438 -0.57813,0.23438 z m 20.47766,0.15625 q -1.29687,0 -2.4375,-0.48438 -1.125,-0.48437 -1.96875,-1.35937 -0.82812,-0.875 -1.29687,-2.03125 -0.46875,-1.17188 -0.46875,-2.53125 0,-1.34375 0.46875,-2.5 0.46875,-1.17188 1.29687,-2.03125 0.84375,-0.875 1.96875,-1.375 1.125,-0.5 2.4375,-0.5 1.23438,0 2.10938,0.32812 0.89062,0.3125 1.79687,1.04688 0.125,0.0937 0.1875,0.20312 0.0781,0.10938 0.0937,0.21875 0.0312,0.0937 0.0312,0.23438 0,0.3125 -0.21875,0.51562 -0.21875,0.1875 -0.51562,0.21875 -0.29688,0.0156 -0.59375,-0.20312 -0.59375,-0.51563 -1.23438,-0.78125 -0.625,-0.28125 -1.65625,-0.28125 -0.95312,0 -1.78125,0.39062 -0.82812,0.375 -1.46875,1.04688 -0.625,0.67187 -0.98437,1.5625 -0.34375,0.89062 -0.34375,1.90625 0,1.01562 0.34375,1.90625 0.35937,0.89062 0.98437,1.5625 0.64063,0.67187 1.46875,1.04687 0.82813,0.375 1.78125,0.375 0.8125,0 1.53125,-0.28125 0.73438,-0.28125 1.40625,-0.78125 0.29688,-0.20312 0.5625,-0.17187 0.28125,0.0156 0.46875,0.21875 0.20313,0.20312 0.20313,0.54687 0,0.17188 -0.0625,0.32813 -0.0625,0.14062 -0.1875,0.26562 -0.875,0.6875 -1.85938,1.04688 -0.98437,0.34375 -2.0625,0.34375 z m 7.66638,-0.15625 q -0.35937,0 -0.60937,-0.23438 -0.23438,-0.25 -0.23438,-0.59375 v -10.82812 q 0,-0.375 0.23438,-0.60938 0.25,-0.23437 0.60937,-0.23437 h 3.1875 q 1.20313,0 2.125,0.53125 0.9375,0.53125 1.45313,1.46875 0.53125,0.9375 0.53125,2.14062 0,1.17188 -0.53125,2.09375 -0.51563,0.90625 -1.45313,1.42188 -0.92187,0.5 -2.125,0.5 h -2.35937 v 3.51562 q 0,0.34375 -0.23438,0.59375 -0.23437,0.23438 -0.59375,0.23438 z m 0.82813,-5.875 h 2.35937 q 0.75,0 1.29688,-0.3125 0.5625,-0.32813 0.875,-0.875 0.32812,-0.5625 0.32812,-1.29688 0,-0.76562 -0.32812,-1.34375 -0.3125,-0.57812 -0.875,-0.90625 -0.54688,-0.34375 -1.29688,-0.34375 h -2.35937 z m 18.59353,6.03125 q -1.29687,0 -2.4375,-0.48438 -1.125,-0.48437 -1.96875,-1.35937 -0.82812,-0.875 -1.29687,-2.03125 -0.46875,-1.17188 -0.46875,-2.53125 0,-1.34375 0.46875,-2.5 0.46875,-1.17188 1.29687,-2.03125 0.84375,-0.875 1.96875,-1.375 1.125,-0.5 2.4375,-0.5 1.23438,0 2.10938,0.32812 0.89062,0.3125 1.79687,1.04688 0.125,0.0937 0.1875,0.20312 0.0781,0.10938 0.0937,0.21875 0.0312,0.0937 0.0312,0.23438 0,0.3125 -0.21875,0.51562 -0.21875,0.1875 -0.51562,0.21875 -0.29688,0.0156 -0.59375,-0.20312 -0.59375,-0.51563 -1.23438,-0.78125 -0.625,-0.28125 -1.65625,-0.28125 -0.95312,0 -1.78125,0.39062 -0.82812,0.375 -1.46875,1.04688 -0.625,0.67187 -0.98437,1.5625 -0.34375,0.89062 -0.34375,1.90625 0,1.01562 0.34375,1.90625 0.35937,0.89062 0.98437,1.5625 0.64063,0.67187 1.46875,1.04687 0.82813,0.375 1.78125,0.375 0.8125,0 1.53125,-0.28125 0.73438,-0.28125 1.40625,-0.78125 0.29688,-0.20312 0.5625,-0.17187 0.28125,0.0156 0.46875,0.21875 0.20313,0.20312 0.20313,0.54687 0,0.17188 -0.0625,0.32813 -0.0625,0.14062 -0.1875,0.26562 -0.875,0.6875 -1.85938,1.04688 -0.98437,0.34375 -2.0625,0.34375 z m 8.74451,-0.15625 q -0.70312,0 -1.25,-0.375 -0.53125,-0.39063 -0.84375,-1.04688 -0.29687,-0.67187 -0.29687,-1.53125 v -8.75 q 0,-0.34375 0.21875,-0.5625 0.21875,-0.23437 0.57812,-0.23437 0.34375,0 0.5625,0.23437 0.23438,0.21875 0.23438,0.5625 v 8.75 q 0,0.57813 0.21875,0.96875 0.23437,0.39063 0.57812,0.39063 h 0.40625 q 0.3125,0 0.51563,0.21875 0.20312,0.21875 0.20312,0.57812 0,0.34375 -0.3125,0.57813 -0.29687,0.21875 -0.78125,0.21875 z m 3.70627,0 q -0.35938,0 -0.59375,-0.23438 -0.23438,-0.23437 -0.23438,-0.57812 v -7.125 q 0,-0.35938 0.23438,-0.57813 0.23437,-0.23437 0.59375,-0.23437 0.35937,0 0.57812,0.23437 0.23438,0.21875 0.23438,0.57813 v 7.125 q 0,0.34375 -0.23438,0.57812 -0.21875,0.23438 -0.57812,0.23438 z m 0,-10.17188 q -0.4375,0 -0.75,-0.3125 -0.3125,-0.3125 -0.3125,-0.75 0,-0.42187 0.3125,-0.73437 0.3125,-0.3125 0.75,-0.3125 0.42187,0 0.73437,0.3125 0.3125,0.3125 0.3125,0.73437 0,0.4375 -0.3125,0.75 -0.3125,0.3125 -0.73437,0.3125 z m 7.957,10.23438 q -1.32813,0 -2.35938,-0.5625 -1.03125,-0.57813 -1.625,-1.57813 -0.57812,-1 -0.57812,-2.29687 0,-1.3125 0.54687,-2.3125 0.5625,-1 1.53125,-1.5625 0.98438,-0.5625 2.25,-0.5625 1.25,0 2.14063,0.54687 0.90625,0.54688 1.375,1.51563 0.46875,0.96875 0.46875,2.23437 0,0.3125 -0.21875,0.51563 -0.20313,0.1875 -0.51563,0.1875 h -6.45312 v -1.28125 h 6.40625 l -0.65625,0.45312 q -0.0156,-0.79687 -0.32813,-1.42187 -0.29687,-0.64063 -0.85937,-1 -0.5625,-0.375 -1.35938,-0.375 -0.90625,0 -1.5625,0.40625 -0.64062,0.39062 -0.98437,1.09375 -0.32813,0.6875 -0.32813,1.5625 0,0.89062 0.39063,1.57812 0.40625,0.6875 1.10937,1.09375 0.70313,0.39063 1.60938,0.39063 0.5,0 1.01562,-0.1875 0.53125,-0.1875 0.84375,-0.42188 0.23438,-0.17187 0.51563,-0.17187 0.28125,-0.0156 0.5,0.15625 0.26562,0.23437 0.28125,0.53125 0.0156,0.28125 -0.25,0.5 -0.54688,0.42187 -1.35938,0.70312 -0.8125,0.26563 -1.54687,0.26563 z m 13.21729,-0.0469 q -0.34375,0 -0.57813,-0.23437 -0.23437,-0.23438 -0.23437,-0.57813 v -3.9375 q 0,-0.90625 -0.34375,-1.48437 -0.32813,-0.57813 -0.90625,-0.85938 -0.5625,-0.28125 -1.29688,-0.28125 -0.67187,0 -1.21875,0.28125 -0.53125,0.26563 -0.85937,0.71875 -0.3125,0.45313 -0.3125,1.04688 h -1.01563 q 0,-1 0.48438,-1.79688 0.5,-0.79687 1.34375,-1.25 0.84375,-0.46875 1.90625,-0.46875 1.09375,0 1.96875,0.46875 0.875,0.46875 1.375,1.39063 0.5,0.90625 0.5,2.23437 v 3.9375 q 0,0.34375 -0.23438,0.57813 -0.21875,0.23437 -0.57812,0.23437 z m -6.57813,0 q -0.34375,0 -0.57812,-0.23437 -0.23438,-0.23438 -0.23438,-0.57813 v -7.1406 q 0,-0.35938 0.23438,-0.57813 0.23437,-0.23437 0.57812,-0.23437 0.375,0 0.59375,0.23437 0.23438,0.21875 0.23438,0.57813 v 7.14062 q 0,0.34375 -0.23438,0.57813 -0.21875,0.23437 -0.59375,0.23437 z m 13.28702,-0.0156 q -0.79688,0 -1.4375,-0.40625 -0.64063,-0.40625 -1.01563,-1.10938 -0.35937,-0.70312 -0.35937,-1.59375 v -7.625 q 0,-0.35937 0.21875,-0.57812 0.21875,-0.21875 0.57812,-0.21875 0.34375,0 0.5625,0.21875 0.23438,0.21875 0.23438,0.57812 v 7.625 q 0,0.64063 0.34375,1.07813 0.35937,0.4375 0.875,0.4375 h 0.54687 q 0.28125,0 0.48438,0.21875 0.20312,0.21875 0.20312,0.57812 0,0.34375 -0.26562,0.57813 -0.26563,0.21875 -0.6875,0.21875 z m -3.54688,-7.0625 q -0.34375,0 -0.5625,-0.1875 -0.20312,-0.1875 -0.20312,-0.48438 0,-0.3125 0.20312,-0.5 0.21875,-0.20312 0.5625,-0.20312 h 3.6875 q 0.34375,0 0.54688,0.20312 0.20312,0.1875 0.20312,0.5 0,0.29688 -0.20312,0.48438 -0.20313,0.1875 -0.54688,0.1875 z"
       fill-rule="nonzero"
       id="path16" />
    <path
       fill="#ffffff"
       d="m 346.60104,233.56168 h 137.38583 v 74.77167 H 346.60104 Z"
       fill-rule="evenodd"
       id="path17" />
    <path
       stroke="#999999"
       stroke-width="1"
       stroke-linejoin="round"
       stroke-linecap="butt"
       d="m 346.60104,233.56168 h 137.38583 v 74.77167 H 346.60104 Z"
       fill-rule="evenodd"
       id="path18" />
    <path
       fill="#999999"
       d="m 368.58566,256.6417 q -0.23437,0 -0.40625,-0.17187 -0.15625,-0.17188 -0.15625,-0.40625 v -10.29689 q 0,-0.25 0.15625,-0.40625 0.17188,-0.17188 0.40625,-0.17188 0.35938,0 0.51563,0.29688 l 4.9375,9.82812 h -0.5 l 4.85937,-9.82812 q 0.17188,-0.29688 0.51563,-0.29688 0.23437,0 0.39062,0.17188 0.15625,0.15625 0.15625,0.40625 v 10.29689 q 0,0.23437 -0.15625,0.40625 -0.15625,0.17187 -0.39062,0.17187 -0.25,0 -0.42188,-0.17187 -0.17187,-0.17188 -0.17187,-0.40625 v -8.81252 l 0.25,0.0156 -4.32813,8.82814 q -0.15625,0.28125 -0.48437,0.28125 -0.375,0 -0.53125,-0.34375 l -4.35938,-8.71877 0.29688,-0.0625 v 8.81252 q 0,0.23437 -0.17188,0.40625 -0.17187,0.17187 -0.40625,0.17187 z m 18.95596,0.14063 q -1.1875,0 -2.21875,-0.45313 -1.03125,-0.45314 -1.82812,-1.26564 -0.78125,-0.8125 -1.21875,-1.875 -0.4375,-1.0625 -0.4375,-2.28125 0,-1.20313 0.42187,-2.26563 0.4375,-1.0625 1.21875,-1.85937 0.79688,-0.8125 1.82813,-1.26563 1.03125,-0.46875 2.23437,-0.46875 1.0625,0 1.92188,0.3125 0.85937,0.29688 1.67187,0.98438 0.125,0.0937 0.14063,0.23437 0.0312,0.14063 -0.0312,0.26563 -0.0469,0.125 -0.17188,0.1875 -0.0312,0.10937 -0.15625,0.17187 -0.10937,0.0625 -0.26562,0.0469 -0.14063,-0.0156 -0.29688,-0.14063 -0.5625,-0.5 -1.25,-0.73437 -0.67187,-0.25 -1.5625,-0.25 -0.95312,0 -1.78125,0.39062 -0.82812,0.375 -1.46875,1.04688 -0.625,0.65625 -0.98437,1.51562 -0.35938,0.85938 -0.35938,1.82813 0,1 0.35938,1.875 0.35937,0.85937 0.98437,1.51562 0.64063,0.65625 1.46875,1.03125 0.82813,0.375 1.78125,0.375 0.8125,0 1.53125,-0.26562 0.71875,-0.26563 1.35938,-0.76563 0.17187,-0.14062 0.35937,-0.10937 0.20313,0.0312 0.34375,0.17187 0.15625,0.14063 0.15625,0.375 0,0.125 -0.0469,0.21875 -0.0312,0.0937 -0.10938,0.20313 -0.75,0.68751 -1.67187,0.96876 -0.92188,0.28125 -1.92188,0.28126 z m 6.67792,-0.14063 q -0.25,0 -0.40625,-0.15625 -0.15625,-0.17187 -0.15625,-0.42187 v -10.29689 q 0,-0.25 0.15625,-0.40625 0.15625,-0.17188 0.40625,-0.17188 h 2.9375 q 1.07813,0 1.90625,0.48438 0.84375,0.46875 1.3125,1.3125 0.46875,0.82812 0.46875,1.9375 0,1.0625 -0.46875,1.89062 -0.46875,0.82813 -1.3125,1.3125 -0.82812,0.46875 -1.90625,0.46875 h -2.35937 v 3.46877 q 0,0.25 -0.17188,0.42187 -0.15625,0.15625 -0.40625,0.15625 z m 0.57813,-5.14064 h 2.35937 q 0.75,0 1.32813,-0.32813 0.59375,-0.32812 0.92187,-0.90625 0.32813,-0.59375 0.32813,-1.34375 0,-0.78125 -0.32813,-1.35937 -0.32812,-0.59375 -0.92187,-0.92188 -0.57813,-0.34375 -1.32813,-0.34375 h -2.35937 z m 15.63897,5.28127 q -0.9375,0 -1.73437,-0.26563 -0.79688,-0.26562 -1.39063,-0.76564 -0.57812,-0.5 -0.89062,-1.15625 -0.125,-0.23438 -0.0156,-0.4375 0.10938,-0.20313 0.375,-0.26563 0.20313,-0.0625 0.40625,0.0469 0.20313,0.0937 0.29688,0.29687 0.21875,0.42188 0.64062,0.76563 0.4375,0.34375 1.01563,0.53125 0.59375,0.17187 1.29687,0.17187 0.78125,0 1.375,-0.25 0.60938,-0.26562 0.95313,-0.75 0.34375,-0.5 0.34375,-1.20312 0,-0.89063 -0.67188,-1.53125 -0.65625,-0.64063 -2.0625,-0.82813 -1.71875,-0.20312 -2.6875,-1.0625 -0.95312,-0.85937 -0.95312,-2.09375 0,-0.90625 0.46875,-1.5625 0.48437,-0.65625 1.3125,-1.01562 0.84375,-0.35938 1.92187,-0.35938 0.8125,0 1.46875,0.26563 0.65625,0.25 1.14063,0.67187 0.5,0.40625 0.79687,0.90625 0.15625,0.23438 0.0937,0.45313 -0.0469,0.21875 -0.25,0.34375 -0.21875,0.0937 -0.45312,0.0312 -0.21875,-0.0781 -0.32813,-0.28125 -0.23437,-0.34375 -0.5625,-0.64063 -0.32812,-0.29687 -0.79687,-0.46875 -0.46875,-0.1875 -1.125,-0.20312 -1.15625,0 -1.85938,0.5 -0.70312,0.48437 -0.70312,1.42187 0,0.5 0.26562,0.92188 0.26563,0.42187 0.85938,0.71875 0.60937,0.29687 1.64062,0.45312 1.82813,0.25 2.71875,1.10938 0.89063,0.85937 0.89063,2.23437 0,0.79688 -0.29688,1.42188 -0.28125,0.60937 -0.79687,1.03125 -0.51563,0.40627 -1.21875,0.62502 -0.6875,0.21875 -1.48438,0.21875 z m 9.67121,-0.0625 q -1.1875,0 -2.10938,-0.51563 -0.90625,-0.53127 -1.4375,-1.45314 -0.51562,-0.92188 -0.51562,-2.10938 0,-1.20312 0.48437,-2.10937 0.5,-0.92188 1.35938,-1.45313 0.875,-0.53125 2,-0.53125 1.10937,0 1.9375,0.51563 0.82812,0.5 1.28125,1.39062 0.45312,0.89063 0.45312,2.04688 0,0.23437 -0.14062,0.375 -0.14063,0.125 -0.375,0.125 h -6.23438 v -0.9375 h 6.34375 l -0.625,0.45312 q 0.0156,-0.84375 -0.3125,-1.51562 -0.32812,-0.67188 -0.92187,-1.04688 -0.57813,-0.39062 -1.40625,-0.39062 -0.82813,0 -1.46875,0.40625 -0.625,0.39062 -0.96875,1.09375 -0.34375,0.6875 -0.34375,1.57812 0,0.89063 0.375,1.57813 0.39062,0.6875 1.0625,1.09375 0.6875,0.39062 1.5625,0.39062 0.53125,0 1.0625,-0.17187 0.53125,-0.1875 0.85937,-0.46875 0.15625,-0.14063 0.35938,-0.14063 0.21875,-0.0156 0.35937,0.10938 0.1875,0.17187 0.1875,0.375 0.0156,0.20312 -0.15625,0.35937 -0.48437,0.40627 -1.23437,0.68752 -0.75,0.26562 -1.4375,0.26563 z m 8.17086,0 q -0.875,0 -1.73437,-0.29688 -0.84375,-0.29687 -1.35938,-0.87502 -0.17187,-0.1875 -0.14062,-0.40625 0.0312,-0.21875 0.21875,-0.375 0.20312,-0.14062 0.42187,-0.10937 0.23438,0.0156 0.375,0.1875 0.34375,0.40625 0.92188,0.625 0.59375,0.21875 1.29687,0.21875 1.07813,0 1.5625,-0.375 0.48438,-0.375 0.5,-0.90625 0,-0.51563 -0.5,-0.85938 -0.5,-0.34375 -1.64062,-0.54687 -1.48438,-0.23438 -2.17188,-0.8125 -0.6875,-0.59375 -0.6875,-1.39063 0,-0.75 0.39063,-1.25 0.40625,-0.5 1.0625,-0.75 0.65625,-0.25 1.45312,-0.25 0.98438,0 1.6875,0.34375 0.71875,0.32813 1.15625,0.90625 0.14063,0.1875 0.10938,0.39063 -0.0312,0.20312 -0.23438,0.34375 -0.17187,0.0937 -0.40625,0.0625 -0.21875,-0.0312 -0.375,-0.21875 -0.375,-0.42188 -0.85937,-0.60938 -0.48438,-0.20312 -1.10938,-0.20312 -0.8125,0 -1.29687,0.32812 -0.48438,0.32813 -0.48438,0.82813 0,0.34375 0.1875,0.59375 0.1875,0.25 0.625,0.4375 0.45313,0.1875 1.26563,0.3125 1.09375,0.1875 1.73437,0.53125 0.64063,0.34375 0.90625,0.8125 0.26563,0.45312 0.26563,0.98437 0,0.70313 -0.40625,1.21875 -0.39063,0.51565 -1.10938,0.81252 -0.70312,0.29688 -1.625,0.29688 z m 7.89975,0 q -0.875,0 -1.73437,-0.29688 -0.84375,-0.29687 -1.35938,-0.87502 -0.17187,-0.1875 -0.14062,-0.40625 0.0312,-0.21875 0.21875,-0.375 0.20312,-0.14062 0.42187,-0.10937 0.23438,0.0156 0.375,0.1875 0.34375,0.40625 0.92188,0.625 0.59375,0.21875 1.29687,0.21875 1.07813,0 1.5625,-0.375 0.48438,-0.375 0.5,-0.90625 0,-0.51563 -0.5,-0.85938 -0.5,-0.34375 -1.64062,-0.54687 -1.48438,-0.23438 -2.17188,-0.8125 -0.6875,-0.59375 -0.6875,-1.39063 0,-0.75 0.39063,-1.25 0.40625,-0.5 1.0625,-0.75 0.65625,-0.25 1.45312,-0.25 0.98438,0 1.6875,0.34375 0.71875,0.32813 1.15625,0.90625 0.14063,0.1875 0.10938,0.39063 -0.0312,0.20312 -0.23438,0.34375 -0.17187,0.0937 -0.40625,0.0625 -0.21875,-0.0312 -0.375,-0.21875 -0.375,-0.42188 -0.85937,-0.60938 -0.48438,-0.20312 -1.10938,-0.20312 -0.8125,0 -1.29687,0.32812 -0.48438,0.32813 -0.48438,0.82813 0,0.34375 0.1875,0.59375 0.1875,0.25 0.625,0.4375 0.45313,0.1875 1.26563,0.3125 1.09375,0.1875 1.73437,0.53125 0.64063,0.34375 0.90625,0.8125 0.26563,0.45312 0.26563,0.98437 0,0.70313 -0.40625,1.21875 -0.39063,0.51565 -1.10938,0.81252 -0.70312,0.29688 -1.625,0.29688 z m 5.89975,-0.0781 q -0.26562,0 -0.42187,-0.15625 -0.15625,-0.15625 -0.15625,-0.42187 v -6.87502 q 0,-0.25 0.15625,-0.40625 0.15625,-0.15625 0.42187,-0.15625 0.25,0 0.40625,0.15625 0.15625,0.15625 0.15625,0.40625 v 6.87502 q 0,0.26562 -0.15625,0.42187 -0.15625,0.15625 -0.40625,0.15625 z m -0.0156,-9.54689 q -0.32813,0 -0.5625,-0.23437 -0.23438,-0.23438 -0.23438,-0.5625 0,-0.375 0.23438,-0.57813 0.25,-0.21875 0.57812,-0.21875 0.29688,0 0.53125,0.21875 0.25,0.20313 0.25,0.57813 0,0.32812 -0.23437,0.5625 -0.23438,0.23437 -0.5625,0.23437 z m 7.09503,9.62502 q -1.17187,0 -2.09375,-0.53125 -0.92187,-0.53127 -1.45312,-1.45315 -0.53125,-0.92187 -0.53125,-2.09375 0,-1.1875 0.53125,-2.10937 0.53125,-0.92188 1.45312,-1.45313 0.92188,-0.53125 2.09375,-0.53125 1.17188,0 2.07813,0.53125 0.92187,0.53125 1.45312,1.45313 0.53125,0.92187 0.54688,2.10937 0,1.17188 -0.54688,2.09375 -0.53125,0.92188 -1.45312,1.45315 -0.90625,0.53125 -2.07813,0.53125 z m 0,-1.03127 q 0.84375,0 1.51563,-0.39063 0.6875,-0.40625 1.0625,-1.09375 0.375,-0.6875 0.375,-1.5625 0,-0.875 -0.375,-1.5625 -0.375,-0.70312 -1.0625,-1.09375 -0.67188,-0.40625 -1.51563,-0.40625 -0.84375,0 -1.53125,0.40625 -0.67187,0.39063 -1.0625,1.09375 -0.375,0.6875 -0.375,1.5625 0,0.875 0.375,1.5625 0.39063,0.6875 1.0625,1.09375 0.6875,0.39063 1.53125,0.39063 z m 13.14108,0.95314 q -0.25,0 -0.40625,-0.15625 -0.15625,-0.17188 -0.15625,-0.40625 v -3.81252 q 0,-0.90625 -0.34375,-1.48437 -0.34375,-0.59375 -0.9375,-0.875 -0.59375,-0.29688 -1.34375,-0.29688 -0.71875,0 -1.29687,0.28125 -0.57813,0.26563 -0.92188,0.75 -0.32812,0.48438 -0.32812,1.10938 h -0.8125 q 0.0312,-0.92188 0.5,-1.64063 0.46875,-0.73437 1.23437,-1.15625 0.78125,-0.42187 1.73438,-0.42187 1.04687,0 1.85937,0.4375 0.82813,0.4375 1.29688,1.28125 0.48437,0.82812 0.48437,2.01562 v 3.81252 q 0,0.23437 -0.17187,0.40625 -0.15625,0.15625 -0.39063,0.15625 z m -6.29687,0 q -0.26563,0 -0.42188,-0.15625 -0.15625,-0.15625 -0.15625,-0.40625 v -6.89064 q 0,-0.25 0.15625,-0.40625 0.15625,-0.15625 0.42188,-0.15625 0.25,0 0.40625,0.15625 0.15625,0.15625 0.15625,0.40625 v 6.89064 q 0,0.25 -0.15625,0.40625 -0.15625,0.15625 -0.40625,0.15625 z"
       fill-rule="nonzero"
       id="path19" />
    <path
       fill="#999999"
       d="m 346.60104,269.38315 h 137.38583 v 45.66928 H 346.60104 Z"
       fill-rule="evenodd"
       id="path20" />
    <path
       stroke="#999999"
       stroke-width="1"
       stroke-linejoin="round"
       stroke-linecap="butt"
       d="m 346.60104,269.38315 h 137.38583 v 45.66928 H 346.60104 Z"
       fill-rule="evenodd"
       id="path21" />
    <path
       fill="#ffffff"
       d="m 360.72348,288.2978 q -0.23438,0 -0.40625,-0.17188 -0.15625,-0.17187 -0.15625,-0.40625 V 277.4228 q 0,-0.25 0.15625,-0.40625 0.17187,-0.17188 0.40625,-0.17188 0.35937,0 0.51562,0.29688 l 4.9375,9.82812 h -0.5 l 4.85938,-9.82812 q 0.17187,-0.29688 0.51562,-0.29688 0.23438,0 0.39063,0.17188 0.15625,0.15625 0.15625,0.40625 v 10.29687 q 0,0.23438 -0.15625,0.40625 -0.15625,0.17188 -0.39063,0.17188 -0.25,0 -0.42187,-0.17188 -0.17188,-0.17187 -0.17188,-0.40625 v -8.8125 l 0.25,0.0156 -4.32812,8.82812 q -0.15625,0.28125 -0.48438,0.28125 -0.375,0 -0.53125,-0.34375 l -4.35937,-8.71875 0.29687,-0.0625 v 8.8125 q 0,0.23438 -0.17187,0.40625 -0.17188,0.17188 -0.40625,0.17188 z m 18.95596,0.14062 q -1.1875,0 -2.21875,-0.45312 -1.03125,-0.45313 -1.82812,-1.26563 -0.78125,-0.8125 -1.21875,-1.875 -0.4375,-1.0625 -0.4375,-2.28125 0,-1.20312 0.42187,-2.26562 0.4375,-1.0625 1.21875,-1.85938 0.79688,-0.8125 1.82813,-1.26562 1.03125,-0.46875 2.23437,-0.46875 1.0625,0 1.92188,0.3125 0.85937,0.29687 1.67187,0.98437 0.125,0.0937 0.14063,0.23438 0.0312,0.14062 -0.0312,0.26562 -0.0469,0.125 -0.17188,0.1875 -0.0312,0.10938 -0.15625,0.17188 -0.10937,0.0625 -0.26562,0.0469 -0.14063,-0.0156 -0.29688,-0.14062 -0.5625,-0.5 -1.25,-0.73438 -0.67187,-0.25 -1.5625,-0.25 -0.95312,0 -1.78125,0.39063 -0.82812,0.375 -1.46875,1.04687 -0.625,0.65625 -0.98437,1.51563 -0.35938,0.85937 -0.35938,1.82812 0,1 0.35938,1.875 0.35937,0.85938 0.98437,1.51563 0.64063,0.65625 1.46875,1.03125 0.82813,0.375 1.78125,0.375 0.8125,0 1.53125,-0.26563 0.71875,-0.26562 1.35938,-0.76562 0.17187,-0.14063 0.35937,-0.10938 0.20313,0.0312 0.34375,0.17188 0.15625,0.14062 0.15625,0.375 0,0.125 -0.0469,0.21875 -0.0312,0.0937 -0.10938,0.20312 -0.75,0.6875 -1.67187,0.96875 -0.92188,0.28125 -1.92188,0.28125 z m 6.67792,-0.14062 q -0.25,0 -0.40625,-0.15625 -0.15625,-0.17188 -0.15625,-0.42188 V 277.4228 q 0,-0.25 0.15625,-0.40625 0.15625,-0.17188 0.40625,-0.17188 h 2.9375 q 1.07813,0 1.90625,0.48438 0.84375,0.46875 1.3125,1.3125 0.46875,0.82812 0.46875,1.9375 0,1.0625 -0.46875,1.89062 -0.46875,0.82813 -1.3125,1.3125 -0.82812,0.46875 -1.90625,0.46875 h -2.35937 v 3.46875 q 0,0.25 -0.17188,0.42188 -0.15625,0.15625 -0.40625,0.15625 z m 0.57813,-5.14063 h 2.35937 q 0.75,0 1.32813,-0.32812 0.59375,-0.32813 0.92187,-0.90625 0.32813,-0.59375 0.32813,-1.34375 0,-0.78125 -0.32813,-1.35938 -0.32812,-0.59375 -0.92187,-0.92187 -0.57813,-0.34375 -1.32813,-0.34375 h -2.35937 z m 15.45147,5.14063 q -0.23437,0 -0.40625,-0.17188 -0.17187,-0.17187 -0.17187,-0.40625 v -10.875 h 1.14062 v 10.875 q 0,0.23438 -0.15625,0.40625 -0.15625,0.17188 -0.40625,0.17188 z m -4.04687,-10.40625 q -0.23438,0 -0.39063,-0.14063 -0.14062,-0.15625 -0.14062,-0.375 0,-0.23437 0.14062,-0.375 0.15625,-0.15625 0.39063,-0.15625 h 8.10937 q 0.23438,0 0.375,0.15625 0.14063,0.14063 0.14063,0.375 0,0.21875 -0.14063,0.375 -0.14062,0.14063 -0.375,0.14063 z m 8.57779,5.46875 q 0.0469,-0.90625 0.48437,-1.625 0.4375,-0.71875 1.125,-1.125 0.70313,-0.42188 1.54688,-0.42188 0.67187,0 1.03125,0.20313 0.375,0.1875 0.29687,0.54687 -0.0625,0.21875 -0.20312,0.29688 -0.14063,0.0781 -0.34375,0.0625 -0.1875,-0.0156 -0.4375,-0.0312 -0.82813,-0.0781 -1.46875,0.17187 -0.625,0.23438 -1,0.73438 -0.375,0.5 -0.375,1.1875 z m 0.0937,4.9375 q -0.26563,0 -0.42188,-0.14063 -0.14062,-0.15625 -0.14062,-0.42187 v -6.89063 q 0,-0.26562 0.14062,-0.40625 0.15625,-0.15625 0.42188,-0.15625 0.26562,0 0.40625,0.15625 0.15625,0.14063 0.15625,0.40625 v 6.89063 q 0,0.26562 -0.15625,0.42187 -0.14063,0.14063 -0.40625,0.14063 z m 9.09466,0.0781 q -1.125,0 -2.01562,-0.53125 -0.89063,-0.54687 -1.42188,-1.46875 -0.51562,-0.92187 -0.51562,-2.07812 0,-1.17188 0.53125,-2.09375 0.54687,-0.92188 1.46875,-1.45313 0.92187,-0.54687 2.07812,-0.54687 1.15625,0 2.0625,0.54687 0.92188,0.53125 1.45313,1.45313 0.54687,0.92187 0.5625,2.09375 l -0.45313,0.34375 q 0,1.0625 -0.5,1.90625 -0.48437,0.84375 -1.32812,1.34375 -0.84375,0.48437 -1.92188,0.48437 z m 0.125,-1.03125 q 0.84375,0 1.51563,-0.39062 0.67187,-0.40625 1.04687,-1.09375 0.39063,-0.70313 0.39063,-1.5625 0,-0.875 -0.39063,-1.5625 -0.375,-0.70313 -1.04687,-1.09375 -0.67188,-0.40625 -1.51563,-0.40625 -0.82812,0 -1.51562,0.40625 -0.67188,0.39062 -1.0625,1.09375 -0.39063,0.6875 -0.39063,1.5625 0,0.85937 0.39063,1.5625 0.39062,0.6875 1.0625,1.09375 0.6875,0.39062 1.51562,0.39062 z m 3.5,0.95313 q -0.25,0 -0.40625,-0.15625 -0.15625,-0.15625 -0.15625,-0.40625 v -2.5 l 0.26563,-1.15625 0.875,0.21875 v 3.4375 q 0,0.25 -0.17188,0.40625 -0.15625,0.15625 -0.40625,0.15625 z m 9.64109,0 q -0.25,0 -0.40625,-0.15625 -0.15625,-0.17188 -0.15625,-0.40625 v -3.8125 q 0,-0.90625 -0.34375,-1.48438 -0.34375,-0.59375 -0.9375,-0.875 -0.59375,-0.29687 -1.34375,-0.29687 -0.71875,0 -1.29688,0.28125 -0.57812,0.26562 -0.92187,0.75 -0.32813,0.48437 -0.32813,1.10937 h -0.8125 q 0.0312,-0.92187 0.5,-1.64062 0.46875,-0.73438 1.23438,-1.15625 0.78125,-0.42188 1.73437,-0.42188 1.04688,0 1.85938,0.4375 0.82812,0.4375 1.29687,1.28125 0.48438,0.82813 0.48438,2.01563 v 3.8125 q 0,0.23437 -0.17188,0.40625 -0.15625,0.15625 -0.39062,0.15625 z m -6.29688,0 q -0.26562,0 -0.42187,-0.15625 -0.15625,-0.15625 -0.15625,-0.40625 v -6.89063 q 0,-0.25 0.15625,-0.40625 0.15625,-0.15625 0.42187,-0.15625 0.25,0 0.40625,0.15625 0.15625,0.15625 0.15625,0.40625 v 6.89063 q 0,0.25 -0.15625,0.40625 -0.15625,0.15625 -0.40625,0.15625 z m 12.15668,0.0781 q -0.875,0 -1.73438,-0.29687 -0.84375,-0.29688 -1.35937,-0.875 -0.17188,-0.1875 -0.14063,-0.40625 0.0312,-0.21875 0.21875,-0.375 0.20313,-0.14063 0.42188,-0.10938 0.23437,0.0156 0.375,0.1875 0.34375,0.40625 0.92187,0.625 0.59375,0.21875 1.29688,0.21875 1.07812,0 1.5625,-0.375 0.48437,-0.375 0.5,-0.90625 0,-0.51562 -0.5,-0.85937 -0.5,-0.34375 -1.64063,-0.54688 -1.48437,-0.23437 -2.17187,-0.8125 -0.6875,-0.59375 -0.6875,-1.39062 0,-0.75 0.39062,-1.25 0.40625,-0.5 1.0625,-0.75 0.65625,-0.25 1.45313,-0.25 0.98437,0 1.6875,0.34375 0.71875,0.32812 1.15625,0.90625 0.14062,0.1875 0.10937,0.39062 -0.0312,0.20313 -0.23437,0.34375 -0.17188,0.0937 -0.40625,0.0625 -0.21875,-0.0312 -0.375,-0.21875 -0.375,-0.42187 -0.85938,-0.60937 -0.48437,-0.20313 -1.10937,-0.20313 -0.8125,0 -1.29688,0.32813 -0.48437,0.32812 -0.48437,0.82812 0,0.34375 0.1875,0.59375 0.1875,0.25 0.625,0.4375 0.45312,0.1875 1.26562,0.3125 1.09375,0.1875 1.73438,0.53125 0.64062,0.34375 0.90625,0.8125 0.26562,0.45313 0.26562,0.98438 0,0.70312 -0.40625,1.21875 -0.39062,0.51562 -1.10937,0.8125 -0.70313,0.29687 -1.625,0.29687 z m 5.66537,3.34375 q -0.26562,0 -0.42187,-0.15625 -0.15625,-0.14062 -0.15625,-0.40625 v -6.92187 q 0.0156,-1.14063 0.54687,-2.04688 0.54688,-0.92187 1.45313,-1.45312 0.92187,-0.53125 2.0625,-0.53125 1.17187,0 2.09375,0.54687 0.92187,0.53125 1.45312,1.45313 0.54688,0.92187 0.54688,2.09375 0,1.15625 -0.53125,2.07812 -0.51563,0.92188 -1.40625,1.46875 -0.89063,0.53125 -2.01563,0.53125 -0.98437,0 -1.78125,-0.42187 -0.79687,-0.42188 -1.28125,-1.10938 v 4.3125 q 0,0.26563 -0.15625,0.40625 -0.15625,0.15625 -0.40625,0.15625 z m 3.48438,-4.375 q 0.85937,0 1.53125,-0.39062 0.67187,-0.40625 1.0625,-1.09375 0.39062,-0.70313 0.39062,-1.5625 0,-0.875 -0.39062,-1.5625 -0.39063,-0.70313 -1.0625,-1.09375 -0.67188,-0.40625 -1.53125,-0.40625 -0.82813,0 -1.51563,0.40625 -0.67187,0.39062 -1.04687,1.09375 -0.375,0.6875 -0.375,1.5625 0,0.85937 0.375,1.5625 0.375,0.6875 1.04687,1.09375 0.6875,0.39062 1.51563,0.39062 z m 9.95578,1.03125 q -1.17188,0 -2.09375,-0.53125 -0.92188,-0.53125 -1.45313,-1.45312 -0.53125,-0.92188 -0.53125,-2.09375 0,-1.1875 0.53125,-2.10938 0.53125,-0.92187 1.45313,-1.45312 0.92187,-0.53125 2.09375,-0.53125 1.17187,0 2.07812,0.53125 0.92188,0.53125 1.45313,1.45312 0.53125,0.92188 0.54687,2.10938 0,1.17187 -0.54687,2.09375 -0.53125,0.92187 -1.45313,1.45312 -0.90625,0.53125 -2.07812,0.53125 z m 0,-1.03125 q 0.84375,0 1.51562,-0.39062 0.6875,-0.40625 1.0625,-1.09375 0.375,-0.6875 0.375,-1.5625 0,-0.875 -0.375,-1.5625 -0.375,-0.70313 -1.0625,-1.09375 -0.67187,-0.40625 -1.51562,-0.40625 -0.84375,0 -1.53125,0.40625 -0.67188,0.39062 -1.0625,1.09375 -0.375,0.6875 -0.375,1.5625 0,0.875 0.375,1.5625 0.39062,0.6875 1.0625,1.09375 0.6875,0.39062 1.53125,0.39062 z m 6.7348,-3.98437 q 0.0469,-0.90625 0.48437,-1.625 0.4375,-0.71875 1.125,-1.125 0.70313,-0.42188 1.54688,-0.42188 0.67187,0 1.03125,0.20313 0.375,0.1875 0.29687,0.54687 -0.0625,0.21875 -0.20312,0.29688 -0.14063,0.0781 -0.34375,0.0625 -0.1875,-0.0156 -0.4375,-0.0312 -0.82813,-0.0781 -1.46875,0.17187 -0.625,0.23438 -1,0.73438 -0.375,0.5 -0.375,1.1875 z m 0.0937,4.9375 q -0.26563,0 -0.42188,-0.14063 -0.14062,-0.15625 -0.14062,-0.42187 v -6.89063 q 0,-0.26562 0.14062,-0.40625 0.15625,-0.15625 0.42188,-0.15625 0.26562,0 0.40625,0.15625 0.15625,0.14063 0.15625,0.40625 v 6.89063 q 0,0.26562 -0.15625,0.42187 -0.14063,0.14063 -0.40625,0.14063 z m 9.29071,0 q -0.78125,0 -1.39063,-0.35938 -0.59375,-0.375 -0.95312,-1.01562 -0.34375,-0.64063 -0.34375,-1.45313 v -7.17187 q 0,-0.25 0.14062,-0.40625 0.15625,-0.15625 0.40625,-0.15625 0.25,0 0.40625,0.15625 0.17188,0.15625 0.17188,0.40625 v 7.17187 q 0,0.75 0.4375,1.23438 0.4375,0.46875 1.125,0.46875 h 0.39062 q 0.23438,0 0.375,0.15625 0.15625,0.15625 0.15625,0.40625 0,0.25 -0.17187,0.40625 -0.17188,0.15625 -0.4375,0.15625 z m -3.64063,-6.73438 q -0.21875,0 -0.375,-0.14062 -0.14062,-0.14063 -0.14062,-0.34375 0,-0.23438 0.14062,-0.35938 0.15625,-0.14062 0.375,-0.14062 h 3.73438 q 0.21875,0 0.35937,0.14062 0.15625,0.125 0.15625,0.35938 0,0.20312 -0.15625,0.34375 -0.14062,0.14062 -0.35937,0.14062 z"
       fill-rule="nonzero"
       id="path22" />
    <path
       fill="#ffffff"
       d="m 392.35425,309.71967 q -0.17188,0 -0.3125,-0.0937 -0.125,-0.0781 -0.23438,-0.28125 -0.85937,-1.76563 -1.28125,-3.53125 -0.42187,-1.76563 -0.42187,-3.54688 0,-1.76562 0.42187,-3.53125 0.42188,-1.76562 1.28125,-3.51562 0.1875,-0.39063 0.54688,-0.39063 0.23437,0 0.39062,0.17188 0.17188,0.15625 0.17188,0.39062 0,0.17188 -0.0937,0.32813 -1.60938,3.26562 -1.60938,6.5625 0,1.64062 0.40625,3.29687 0.42188,1.65625 1.21875,3.28125 0.0937,0.17188 0.0937,0.3125 0,0.23438 -0.17187,0.39063 -0.15625,0.15625 -0.40625,0.15625 z m 7.33014,-3.28125 q -1.1875,0 -2.21875,-0.45313 -1.03125,-0.45312 -1.82813,-1.26562 -0.78125,-0.8125 -1.21875,-1.875 -0.4375,-1.0625 -0.4375,-2.28125 0,-1.20313 0.42188,-2.26563 0.4375,-1.0625 1.21875,-1.85937 0.79687,-0.8125 1.82812,-1.26563 1.03125,-0.46875 2.23438,-0.46875 1.0625,0 1.92187,0.3125 0.85938,0.29688 1.67188,0.98438 0.125,0.0937 0.14062,0.23437 0.0312,0.14063 -0.0312,0.26563 -0.0469,0.125 -0.17187,0.1875 -0.0312,0.10937 -0.15625,0.17187 -0.10938,0.0625 -0.26563,0.0469 -0.14062,-0.0156 -0.29687,-0.14063 -0.5625,-0.5 -1.25,-0.73437 -0.67188,-0.25 -1.5625,-0.25 -0.95313,0 -1.78125,0.39062 -0.82813,0.375 -1.46875,1.04688 -0.625,0.65625 -0.98438,1.51562 -0.35937,0.85938 -0.35937,1.82813 0,1 0.35937,1.875 0.35938,0.85937 0.98438,1.51562 0.64062,0.65625 1.46875,1.03125 0.82812,0.375 1.78125,0.375 0.8125,0 1.53125,-0.26562 0.71875,-0.26563 1.35937,-0.76563 0.17188,-0.14062 0.35938,-0.10937 0.20312,0.0312 0.34375,0.17187 0.15625,0.14063 0.15625,0.375 0,0.125 -0.0469,0.21875 -0.0312,0.0937 -0.10937,0.20313 -0.75,0.6875 -1.67188,0.96875 -0.92187,0.28125 -1.92187,0.28125 z m 7.69354,-0.14063 q -0.57812,0 -1.04687,-0.3125 -0.46875,-0.32812 -0.71875,-0.89062 -0.25,-0.57813 -0.25,-1.32813 v -8.35937 q 0,-0.25 0.14062,-0.40625 0.15625,-0.15625 0.40625,-0.15625 0.25,0 0.40625,0.15625 0.15625,0.15625 0.15625,0.40625 v 8.35937 q 0,0.625 0.25,1.03125 0.26563,0.39063 0.65625,0.39063 h 0.375 q 0.21875,0 0.34375,0.15625 0.14063,0.14062 0.14063,0.39062 0,0.25 -0.1875,0.40625 -0.1875,0.15625 -0.48438,0.15625 z m 3.21118,0 q -0.26562,0 -0.42187,-0.15625 -0.15625,-0.15625 -0.15625,-0.42187 v -6.875 q 0,-0.25 0.15625,-0.40625 0.15625,-0.15625 0.42187,-0.15625 0.25,0 0.40625,0.15625 0.15625,0.15625 0.15625,0.40625 v 6.875 q 0,0.26562 -0.15625,0.42187 -0.15625,0.15625 -0.40625,0.15625 z m -0.0156,-9.54687 q -0.32813,0 -0.5625,-0.23438 -0.23438,-0.23437 -0.23438,-0.5625 0,-0.375 0.23438,-0.57812 0.25,-0.21875 0.57812,-0.21875 0.29688,0 0.53125,0.21875 0.25,0.20312 0.25,0.57812 0,0.32813 -0.23437,0.5625 -0.23438,0.23438 -0.5625,0.23438 z m 7.07944,9.625 q -1.1875,0 -2.10938,-0.51563 -0.90625,-0.53125 -1.4375,-1.45312 -0.51562,-0.92188 -0.51562,-2.10938 0,-1.20312 0.48437,-2.10937 0.5,-0.92188 1.35938,-1.45313 0.875,-0.53125 2,-0.53125 1.10937,0 1.9375,0.51563 0.82812,0.5 1.28125,1.39062 0.45312,0.89063 0.45312,2.04688 0,0.23437 -0.14062,0.375 -0.14063,0.125 -0.375,0.125 h -6.23438 v -0.9375 h 6.34375 l -0.625,0.45312 q 0.0156,-0.84375 -0.3125,-1.51562 -0.32812,-0.67188 -0.92187,-1.04688 -0.57813,-0.39062 -1.40625,-0.39062 -0.82813,0 -1.46875,0.40625 -0.625,0.39062 -0.96875,1.09375 -0.34375,0.6875 -0.34375,1.57812 0,0.89063 0.375,1.57813 0.39062,0.6875 1.0625,1.09375 0.6875,0.39062 1.5625,0.39062 0.53125,0 1.0625,-0.17187 0.53125,-0.1875 0.85937,-0.46875 0.15625,-0.14063 0.35938,-0.14063 0.21875,-0.0156 0.35937,0.10938 0.1875,0.17187 0.1875,0.375 0.0156,0.20312 -0.15625,0.35937 -0.48437,0.40625 -1.23437,0.6875 -0.75,0.26563 -1.4375,0.26563 z m 12.23333,-0.0781 q -0.25,0 -0.40625,-0.15625 -0.15625,-0.17187 -0.15625,-0.40625 v -3.8125 q 0,-0.90625 -0.34375,-1.48437 -0.34375,-0.59375 -0.9375,-0.875 -0.59375,-0.29688 -1.34375,-0.29688 -0.71875,0 -1.29687,0.28125 -0.57813,0.26563 -0.92188,0.75 -0.32812,0.48438 -0.32812,1.10938 h -0.8125 q 0.0312,-0.92188 0.5,-1.64063 0.46875,-0.73437 1.23437,-1.15625 0.78125,-0.42187 1.73438,-0.42187 1.04687,0 1.85937,0.4375 0.82813,0.4375 1.29688,1.28125 0.48437,0.82812 0.48437,2.01562 v 3.8125 q 0,0.23438 -0.17187,0.40625 -0.15625,0.15625 -0.39063,0.15625 z m -6.29687,0 q -0.26563,0 -0.42188,-0.15625 -0.15625,-0.15625 -0.15625,-0.40625 v -6.89062 q 0,-0.25 0.15625,-0.40625 0.15625,-0.15625 0.42188,-0.15625 0.25,0 0.40625,0.15625 0.15625,0.15625 0.15625,0.40625 v 6.89062 q 0,0.25 -0.15625,0.40625 -0.15625,0.15625 -0.40625,0.15625 z m 12.48483,0 q -0.78125,0 -1.39062,-0.35937 -0.59375,-0.375 -0.95313,-1.01563 -0.34375,-0.64062 -0.34375,-1.45312 v -7.17188 q 0,-0.25 0.14063,-0.40625 0.15625,-0.15625 0.40625,-0.15625 0.25,0 0.40625,0.15625 0.17187,0.15625 0.17187,0.40625 v 7.17188 q 0,0.75 0.4375,1.23437 0.4375,0.46875 1.125,0.46875 h 0.39063 q 0.23437,0 0.375,0.15625 0.15625,0.15625 0.15625,0.40625 0,0.25 -0.17188,0.40625 -0.17187,0.15625 -0.4375,0.15625 z m -3.64062,-6.73437 q -0.21875,0 -0.375,-0.14063 -0.14063,-0.14062 -0.14063,-0.34375 0,-0.23437 0.14063,-0.35937 0.15625,-0.14063 0.375,-0.14063 h 3.73437 q 0.21875,0 0.35938,0.14063 0.15625,0.125 0.15625,0.35937 0,0.20313 -0.15625,0.34375 -0.14063,0.14063 -0.35938,0.14063 z m 5.79806,10.15625 q -0.23437,0 -0.40625,-0.15625 -0.15625,-0.15625 -0.15625,-0.39063 0,-0.14062 0.0781,-0.3125 0.8125,-1.625 1.21875,-3.28125 0.42187,-1.65625 0.42187,-3.29687 0,-3.29688 -1.625,-6.5625 -0.0781,-0.15625 -0.0937,-0.32813 0,-0.23437 0.17188,-0.39062 0.17187,-0.17188 0.39062,-0.17188 0.375,0 0.5625,0.39063 0.85938,1.75 1.28125,3.51562 0.42188,1.76563 0.42188,3.53125 0,1.78125 -0.4375,3.54688 -0.42188,1.76562 -1.26563,3.53125 -0.125,0.20312 -0.25,0.28125 -0.125,0.0937 -0.3125,0.0937 z"
       fill-rule="nonzero"
       id="path23" />
    <path
       fill="#999999"
       d="m 370.27295,324.2128 h 264.66144 v 39.59055 H 370.27295 Z"
       fill-rule="evenodd"
       id="path24" />
    <path
       fill="#ffffff"
       d="m 448.76105,350.02432 q -1.01563,0 -1.89063,-0.29688 -0.875,-0.29687 -1.51562,-0.82812 -0.64063,-0.54688 -0.96875,-1.26563 -0.14063,-0.26562 -0.0156,-0.46875 0.125,-0.21875 0.40625,-0.3125 0.23438,-0.0625 0.4375,0.0625 0.21875,0.10938 0.32813,0.32813 0.25,0.46875 0.70312,0.84375 0.46875,0.35937 1.10938,0.5625 0.64062,0.1875 1.40625,0.1875 0.84375,0 1.5,-0.26563 0.65625,-0.28125 1.03125,-0.8125 0.39062,-0.54687 0.39062,-1.3125 0,-0.98437 -0.73437,-1.6875 -0.71875,-0.70312 -2.25,-0.89062 -1.875,-0.21875 -2.9375,-1.15625 -1.04688,-0.9375 -1.04688,-2.29688 0,-0.98437 0.51563,-1.70312 0.53125,-0.71875 1.4375,-1.10938 0.90625,-0.39062 2.09375,-0.39062 0.875,0 1.59375,0.28125 0.73437,0.28125 1.26562,0.73437 0.53125,0.45313 0.875,1 0.15625,0.25 0.0937,0.5 -0.0469,0.23438 -0.28125,0.35938 -0.23437,0.125 -0.48437,0.0469 -0.25,-0.0937 -0.375,-0.3125 -0.23438,-0.375 -0.59375,-0.70312 -0.35938,-0.32813 -0.875,-0.51563 -0.51563,-0.1875 -1.23438,-0.20312 -1.26562,0 -2.03125,0.53125 -0.76562,0.53125 -0.76562,1.5625 0,0.54687 0.28125,1 0.29687,0.45312 0.95312,0.78125 0.67188,0.32812 1.78125,0.48437 2,0.29688 2.96875,1.23438 0.96875,0.9375 0.96875,2.4375 0,0.85937 -0.3125,1.53125 -0.3125,0.67187 -0.875,1.14062 -0.5625,0.45313 -1.32812,0.6875 -0.76563,0.23438 -1.625,0.23438 z m 10.01392,-0.15625 q -0.84375,0 -1.51563,-0.39063 -0.65625,-0.40625 -1.04687,-1.09375 -0.375,-0.70312 -0.375,-1.60937 v -7.8125 q 0,-0.28125 0.15625,-0.45313 0.17187,-0.17187 0.45312,-0.17187 0.26563,0 0.4375,0.17187 0.1875,0.17188 0.1875,0.45313 v 7.8125 q 0,0.82812 0.46875,1.34375 0.48438,0.51562 1.23438,0.51562 h 0.4375 q 0.25,0 0.40625,0.1875 0.17187,0.17188 0.17187,0.4375 0,0.26563 -0.20312,0.4375 -0.1875,0.17188 -0.46875,0.17188 z m -3.98438,-7.35938 q -0.23437,0 -0.40625,-0.14062 -0.15625,-0.15625 -0.15625,-0.39063 0,-0.23437 0.15625,-0.39062 0.17188,-0.15625 0.40625,-0.15625 h 4.07813 q 0.25,0 0.40625,0.15625 0.15625,0.15625 0.15625,0.39062 0,0.23438 -0.15625,0.39063 -0.15625,0.14062 -0.40625,0.14062 z m 10.97888,7.4375 q -1.26562,0 -2.28125,-0.57812 -1,-0.59375 -1.59375,-1.59375 -0.57812,-1.01563 -0.57812,-2.29688 0,-1.25 0.5625,-2.25 0.57812,-1.01562 1.54687,-1.59375 0.98438,-0.59375 2.21875,-0.59375 1.07813,0 1.9375,0.45313 0.85938,0.45312 1.39063,1.20312 v -4.70312 q 0,-0.28125 0.17187,-0.45313 0.17188,-0.17187 0.45313,-0.17187 0.26562,0 0.4375,0.17187 0.1875,0.17188 0.1875,0.45313 v 7.5625 q -0.0312,1.23437 -0.625,2.23437 -0.57813,1 -1.57813,1.57813 -1,0.57812 -2.25,0.57812 z m 0,-1.125 q 0.9375,0 1.65625,-0.4375 0.73438,-0.4375 1.15625,-1.1875 0.42188,-0.75 0.42188,-1.71875 0,-0.9375 -0.42188,-1.6875 -0.42187,-0.76562 -1.15625,-1.20312 -0.71875,-0.4375 -1.65625,-0.4375 -0.90625,0 -1.64062,0.4375 -0.73438,0.4375 -1.17188,1.20312 -0.4375,0.75 -0.4375,1.6875 0,0.96875 0.4375,1.71875 0.4375,0.75 1.17188,1.1875 0.73437,0.4375 1.64062,0.4375 z m 8.20264,1.04688 q -0.28125,0 -0.45313,-0.17188 -0.15625,-0.17187 -0.15625,-0.45312 v -7.5 q 0,-0.29688 0.15625,-0.45313 0.17188,-0.17187 0.45313,-0.17187 0.28125,0 0.4375,0.17187 0.17187,0.15625 0.17187,0.45313 v 7.5 q 0,0.28125 -0.17187,0.45312 -0.15625,0.17188 -0.4375,0.17188 z m 0,-10.42188 q -0.35938,0 -0.625,-0.25 -0.25,-0.25 -0.25,-0.625 0,-0.40625 0.26562,-0.625 0.26563,-0.23437 0.625,-0.23437 0.32813,0 0.59375,0.23437 0.26563,0.21875 0.26563,0.625 0,0.375 -0.26563,0.625 -0.25,0.25 -0.60937,0.25 z m 7.7334,10.5 q -1.28125,0 -2.29688,-0.57812 -1,-0.57813 -1.57812,-1.57813 -0.57813,-1.01562 -0.57813,-2.29687 0,-1.28125 0.57813,-2.29688 0.57812,-1.01562 1.57812,-1.57812 1.01563,-0.57813 2.29688,-0.57813 1.28125,0 2.28125,0.57813 1,0.5625 1.57812,1.57812 0.57813,1.01563 0.59375,2.29688 0,1.28125 -0.59375,2.29687 -0.57812,1 -1.57812,1.57813 -1,0.57812 -2.28125,0.57812 z m 0,-1.125 q 0.9375,0 1.67187,-0.42187 0.73438,-0.4375 1.14063,-1.1875 0.42187,-0.75 0.42187,-1.71875 0,-0.95313 -0.42187,-1.70313 -0.40625,-0.76562 -1.14063,-1.20312 -0.73437,-0.4375 -1.67187,-0.4375 -0.92188,0 -1.65625,0.4375 -0.73438,0.4375 -1.17188,1.20312 -0.42187,0.75 -0.42187,1.70313 0,0.96875 0.42187,1.71875 0.4375,0.75 1.17188,1.1875 0.73437,0.42187 1.65625,0.42187 z m 13.22314,4.79688 q -0.26562,0 -0.45312,-0.1875 -0.17188,-0.17188 -0.17188,-0.4375 v -15.01563 q 0,-0.25 0.17188,-0.4375 0.1875,-0.1875 0.45312,-0.1875 0.26563,0 0.4375,0.1875 0.1875,0.1875 0.1875,0.4375 v 15.01563 q 0,0.26562 -0.1875,0.4375 -0.17187,0.1875 -0.4375,0.1875 z m 13.2565,-3.59375 q -1.01562,0 -1.89062,-0.29688 -0.875,-0.29687 -1.51563,-0.82812 -0.64062,-0.54688 -0.96875,-1.26563 -0.14062,-0.26562 -0.0156,-0.46875 0.125,-0.21875 0.40625,-0.3125 0.23437,-0.0625 0.4375,0.0625 0.21875,0.10938 0.32812,0.32813 0.25,0.46875 0.70313,0.84375 0.46875,0.35937 1.10937,0.5625 0.64063,0.1875 1.40625,0.1875 0.84375,0 1.5,-0.26563 0.65625,-0.28125 1.03125,-0.8125 0.39063,-0.54687 0.39063,-1.3125 0,-0.98437 -0.73438,-1.6875 -0.71875,-0.70312 -2.25,-0.89062 -1.875,-0.21875 -2.9375,-1.15625 -1.04687,-0.9375 -1.04687,-2.29688 0,-0.98437 0.51562,-1.70312 0.53125,-0.71875 1.4375,-1.10938 0.90625,-0.39062 2.09375,-0.39062 0.875,0 1.59375,0.28125 0.73438,0.28125 1.26563,0.73437 0.53125,0.45313 0.875,1 0.15628,0.25 0.0938,0.5 -0.0469,0.23438 -0.28128,0.35938 -0.23438,0.125 -0.48438,0.0469 -0.25,-0.0937 -0.375,-0.3125 -0.23437,-0.375 -0.59375,-0.70312 -0.35937,-0.32813 -0.875,-0.51563 -0.51562,-0.1875 -1.23437,-0.20312 -1.26563,0 -2.03125,0.53125 -0.76563,0.53125 -0.76563,1.5625 0,0.54687 0.28125,1 0.29688,0.45312 0.95313,0.78125 0.67187,0.32812 1.78125,0.48437 2,0.29688 2.96875,1.23438 0.96878,0.9375 0.96878,2.4375 0,0.85937 -0.3125,1.53125 -0.31253,0.67187 -0.87503,1.14062 -0.5625,0.45313 -1.32813,0.6875 -0.76562,0.23438 -1.625,0.23438 z m 10.59208,0 q -1.01563,0 -1.89063,-0.29688 -0.875,-0.29687 -1.51562,-0.82812 -0.64063,-0.54688 -0.96875,-1.26563 -0.14063,-0.26562 -0.0156,-0.46875 0.125,-0.21875 0.40625,-0.3125 0.23438,-0.0625 0.4375,0.0625 0.21875,0.10938 0.32813,0.32813 0.25,0.46875 0.70312,0.84375 0.46875,0.35937 1.10938,0.5625 0.64062,0.1875 1.40625,0.1875 0.84375,0 1.5,-0.26563 0.65625,-0.28125 1.03125,-0.8125 0.39062,-0.54687 0.39062,-1.3125 0,-0.98437 -0.73437,-1.6875 -0.71875,-0.70312 -2.25,-0.89062 -1.875,-0.21875 -2.9375,-1.15625 -1.04688,-0.9375 -1.04688,-2.29688 0,-0.98437 0.51563,-1.70312 0.53125,-0.71875 1.4375,-1.10938 0.90625,-0.39062 2.09375,-0.39062 0.875,0 1.59375,0.28125 0.73437,0.28125 1.26562,0.73437 0.53125,0.45313 0.875,1 0.15625,0.25 0.0937,0.5 -0.0469,0.23438 -0.28125,0.35938 -0.23437,0.125 -0.48437,0.0469 -0.25,-0.0937 -0.375,-0.3125 -0.23438,-0.375 -0.59375,-0.70312 -0.35938,-0.32813 -0.875,-0.51563 -0.51563,-0.1875 -1.23438,-0.20312 -1.26562,0 -2.03125,0.53125 -0.76562,0.53125 -0.76562,1.5625 0,0.54687 0.28125,1 0.29687,0.45312 0.95312,0.78125 0.67188,0.32812 1.78125,0.48437 2,0.29688 2.96875,1.23438 0.96875,0.9375 0.96875,2.4375 0,0.85937 -0.3125,1.53125 -0.3125,0.67187 -0.875,1.14062 -0.5625,0.45313 -1.32812,0.6875 -0.76563,0.23438 -1.625,0.23438 z m 7.37323,-0.15625 q -0.26563,0 -0.45313,-0.17188 -0.17187,-0.1875 -0.17187,-0.45312 v -11.25 q 0,-0.26563 0.17187,-0.4375 0.1875,-0.1875 0.45313,-0.1875 h 7.51562 q 0.25,0 0.4375,0.17187 0.1875,0.17188 0.1875,0.4375 0,0.25 -0.1875,0.42188 -0.1875,0.17187 -0.4375,0.17187 h -6.89062 v 4.42188 h 5.01562 q 0.26563,0 0.4375,0.17187 0.1875,0.17188 0.1875,0.4375 0,0.25 -0.1875,0.4375 -0.17187,0.17188 -0.4375,0.17188 h -5.01562 v 4.45312 h 6.89062 q 0.25,0 0.4375,0.1875 0.1875,0.17188 0.1875,0.40625 0,0.26563 -0.1875,0.4375 -0.1875,0.17188 -0.4375,0.17188 z m 16.66632,3.75 q -0.26563,0 -0.45313,-0.1875 -0.17187,-0.17188 -0.17187,-0.4375 v -15.01563 q 0,-0.25 0.17187,-0.4375 0.1875,-0.1875 0.45313,-0.1875 0.26562,0 0.4375,0.1875 0.1875,0.1875 0.1875,0.4375 v 15.01563 q 0,0.26562 -0.1875,0.4375 -0.17188,0.1875 -0.4375,0.1875 z m 9.36584,-3.75 q -0.375,0 -0.65625,-0.26563 -0.26562,-0.28125 -0.26562,-0.65625 0,-0.40625 0.26562,-0.67187 0.28125,-0.28125 0.65625,-0.28125 0.40625,0 0.67188,0.28125 0.28125,0.28125 0.28125,0.67187 0,0.375 -0.28125,0.65625 -0.26563,0.26563 -0.67188,0.26563 z m 3.73438,0 q -0.39063,0 -0.65625,-0.26563 -0.26563,-0.28125 -0.26563,-0.65625 0,-0.40625 0.26563,-0.67187 0.26562,-0.28125 0.65625,-0.28125 0.375,0 0.65625,0.28125 0.28125,0.28125 0.28125,0.67187 0,0.375 -0.26563,0.65625 -0.26562,0.26563 -0.67187,0.26563 z m 3.73437,0 q -0.40625,0 -0.67187,-0.26563 -0.26563,-0.28125 -0.26563,-0.65625 0,-0.39062 0.26563,-0.67187 0.26562,-0.28125 0.67187,-0.28125 0.375,0 0.64063,0.28125 0.28125,0.26562 0.28125,0.67187 0,0.375 -0.28125,0.65625 -0.26563,0.26563 -0.64063,0.26563 z"
       fill-rule="nonzero"
       id="path25" />
    <path
       fill="#999999"
       d="m 382.9029,363.81628 h -18.60034 v 0 c -4.81516,0 -9.43311,-1.91281 -12.83792,-5.31766 -3.40485,-3.40484 -5.31766,-8.02276 -5.31766,-12.83792 v -21.52948 h 36.75592 z"
       fill-rule="evenodd"
       id="path26" />
    <path
       fill="#999999"
       d="m 667.9974,324.28458 -0.016,20.17407 v 0 c -0.004,5.13288 -2.04706,10.05551 -5.67945,13.685 -3.63238,3.62949 -8.55664,5.66849 -13.68951,5.66849 h -19.82758 l 0.0315,-39.52756 z"
       fill-rule="evenodd"
       id="path27" />
  </g>
</svg>
